<?xml version="1.0" encoding="UTF-8"?>
<svg version="1.1" xmlns="http://www.w3.org/2000/svg" width="229" height="229">
<path d="M0 0 C75.57 0 151.14 0 229 0 C229 75.57 229 151.14 229 229 C153.43 229 77.86 229 0 229 C0 153.43 0 77.86 0 0 Z " fill="#DFB3B3" transform="translate(0,0)"/>
<path d="M0 0 C0 1.32 0 2.64 0 4 C0.66 4 1.32 4 2 4 C2.33 2.68 2.66 1.36 3 0 C4.65 0.33 6.3 0.66 8 1 C8 2.65 8 4.3 8 6 C6.02 6.33 4.04 6.66 2 7 C3.98 7.66 5.96 8.32 8 9 C8.22587773 12.26987035 8.42766605 15.54079281 8.625 18.8125 C8.68945312 19.74126953 8.75390625 20.67003906 8.8203125 21.62695312 C8.871875 22.51962891 8.9234375 23.41230469 8.9765625 24.33203125 C9.02893066 25.15421143 9.08129883 25.9763916 9.13525391 26.82348633 C9 29 9 29 7 32 C6.34 32 5.68 32 5 32 C4.67 32.99 4.34 33.98 4 35 C3.401875 34.484375 2.80375 33.96875 2.1875 33.4375 C1.465625 32.963125 0.74375 32.48875 0 32 C-2.88214887 32.88214887 -2.88214887 32.88214887 -5 34 C-4.505 37.96 -4.505 37.96 -4 42 C-3.4225 41.814375 -2.845 41.62875 -2.25 41.4375 C0.26928708 40.94763862 1.57506565 41.24220802 4 42 C5.33217297 42.33794094 6.66536848 42.67190308 8 43 C11.25601751 52.8380744 11.25601751 52.8380744 10.1875 57.6875 C9.795625 58.450625 9.40375 59.21375 9 60 C8.34 60 7.68 60 7 60 C7 60.66 7 61.32 7 62 C3.97562661 63.5121867 1.33758466 63.17263369 -2 63 C-4.4375 62 -4.4375 62 -6 61 C-6 61.99 -6 62.98 -6 64 C-8.64 64 -11.28 64 -14 64 C-14 63.34 -14 62.68 -14 62 C-15.485 62.495 -15.485 62.495 -17 63 C-18.62719482 63.08143855 -20.25751719 63.1075302 -21.88671875 63.09765625 C-22.82451172 63.09443359 -23.76230469 63.09121094 -24.72851562 63.08789062 C-26.19321289 63.07532227 -26.19321289 63.07532227 -27.6875 63.0625 C-29.16959961 63.05573242 -29.16959961 63.05573242 -30.68164062 63.04882812 C-33.12115474 63.03704303 -35.56054689 63.02059011 -38 63 C-37.95875 63.78375 -37.9175 64.5675 -37.875 65.375 C-38 68 -38 68 -40 70 C-44.45263035 70.40478458 -47.84782943 69.58177926 -52 68 C-50.16343011 70.96731398 -50.16343011 70.96731398 -48 73 C-48.66 74.32 -49.32 75.64 -50 77 C-50.66 77 -51.32 77 -52 77 C-52 76.01 -52 75.02 -52 74 C-52.66 74 -53.32 74 -54 74 C-54 73.34 -54 72.68 -54 72 C-55.485 72.99 -55.485 72.99 -57 74 C-60.1875 74.125 -60.1875 74.125 -63 74 C-63 73.34 -63 72.68 -63 72 C-64.175625 72.2784375 -64.175625 72.2784375 -65.375 72.5625 C-68 73 -68 73 -70 72 C-69.42415568 69.61435923 -68.77772405 67.33317216 -68 65 C-70.475 65.495 -70.475 65.495 -73 66 C-73 65.34 -73 64.68 -73 64 C-74.2065625 63.814375 -74.2065625 63.814375 -75.4375 63.625 C-76.283125 63.41875 -77.12875 63.2125 -78 63 C-78.33 62.34 -78.66 61.68 -79 61 C-79 62.65 -79 64.3 -79 66 C-79.99 65.67 -80.98 65.34 -82 65 C-82 62.69 -82 60.38 -82 58 C-81.01 57.505 -81.01 57.505 -80 57 C-80 54.36 -80 51.72 -80 49 C-80.66 49 -81.32 49 -82 49 C-84.07511737 45.58215962 -84.07511737 45.58215962 -83.75 43.0625 C-83.37875 42.0415625 -83.37875 42.0415625 -83 41 C-82.731875 40.113125 -82.46375 39.22625 -82.1875 38.3125 C-81 36 -81 36 -79.0625 35.375 C-78.381875 35.25125 -77.70125 35.1275 -77 35 C-76.505 34.46375 -76.01 33.9275 -75.5 33.375 C-75.005 32.92125 -74.51 32.4675 -74 32 C-71.86254078 32.25146579 -70.54074221 32.45925779 -69 34 C-68.76712992 35.68183948 -68.58735834 37.3712416 -68.4375 39.0625 C-68.35371094 39.98160156 -68.26992187 40.90070312 -68.18359375 41.84765625 C-68.12300781 42.55792969 -68.06242188 43.26820312 -68 44 C-67.38382813 43.49726562 -66.76765625 42.99453125 -66.1328125 42.4765625 C-64 41 -64 41 -61.875 41.375 C-60.92625 41.58125 -59.9775 41.7875 -59 42 C-57.32965233 41.82359364 -55.66285437 41.61184573 -54 41.375 C-49.5771092 40.8442531 -47.67953128 41.37176337 -44 44 C-41.5 44.66666667 -41.5 44.66666667 -39 44 C-37.29319053 42.37446717 -35.62339805 40.70884005 -34 39 C-33.01 39 -32.02 39 -31 39 C-31 39.99 -31 40.98 -31 42 C-29.72125 41.95875 -28.4425 41.9175 -27.125 41.875 C-24.9453125 41.8046875 -24.9453125 41.8046875 -23 42 C-22.34 42.66 -21.68 43.32 -21 44 C-19.58622659 41.36095629 -18.62759865 38.92879371 -18 36 C-18.66 36 -19.32 36 -20 36 C-20.66 34.35 -21.32 32.7 -22 31 C-24.97 31.33 -27.94 31.66 -31 32 C-31 32.66 -31 33.32 -31 34 C-31.99 33.67 -32.98 33.34 -34 33 C-33.34 32.01 -32.68 31.02 -32 30 C-32.28098833 28.65466196 -32.6227493 27.3215789 -33 26 C-33.05071725 19.28503657 -32.46563453 14.14224582 -28 9 C-24.89951072 7.44975536 -22.42105782 7.71007985 -19 8 C-16.24670979 9.79562405 -14.47372539 11.05254922 -13 14 C-12.93049459 15.54023996 -12.91547643 17.08334988 -12.9375 18.625 C-12.94652344 19.44226563 -12.95554687 20.25953125 -12.96484375 21.1015625 C-12.97644531 21.72804688 -12.98804688 22.35453125 -13 23 C-12.34 23.33 -11.68 23.66 -11 24 C-10.67 20.37 -10.34 16.74 -10 13 C-10.66 13 -11.32 13 -12 13 C-12 11.68 -12 10.36 -12 9 C-11.01 9 -10.02 9 -9 9 C-9.061875 8.071875 -9.12375 7.14375 -9.1875 6.1875 C-9 3 -9 3 -7.875 1.125 C-5.21965017 -0.4682099 -3.03210482 -0.20214032 0 0 Z " fill="#E79EA6" transform="translate(212,6)"/>
<path d="M0 0 C9.24 0 18.48 0 28 0 C28 13.53 28 27.06 28 41 C18.76 41 9.52 41 0 41 C0 41.66 0 42.32 0 43 C9.24 43 18.48 43 28 43 C28 47.29 28 51.58 28 56 C14.635 56.495 14.635 56.495 1 57 C14.365 57.495 14.365 57.495 28 58 C27.96744792 61.54817708 27.93489583 65.09635417 27.90234375 68.64453125 C27.83840884 71.99605237 27.83840884 71.99605237 29 75 C19.1 75 9.2 75 -1 75 C-1.02094499 66.94083309 -1.04098314 58.88176421 -1.05175018 50.82259369 C-1.05704008 47.06994976 -1.06411391 43.31732825 -1.07543945 39.56469727 C-1.08627141 35.95318313 -1.09227749 32.34169079 -1.09487724 28.73016167 C-1.09673094 27.34939671 -1.10035049 25.968633 -1.10573006 24.58787727 C-1.11294447 22.66024048 -1.11340809 20.73258193 -1.11352539 18.80493164 C-1.115746 17.70572891 -1.11796661 16.60652618 -1.12025452 15.47401428 C-1 13 -1 13 0 12 C0 8.04 0 4.08 0 0 Z " fill="#CBC1C2" transform="translate(133,154)"/>
<path d="M0 0 C1.32 0.33 2.64 0.66 4 1 C3.979375 2.11375 3.95875 3.2275 3.9375 4.375 C3.73619282 7.83215921 3.73619282 7.83215921 5 10 C5.66 10 6.32 10 7 10 C7 10.99 7 11.98 7 13 C7.99 12.67 8.98 12.34 10 12 C10 12.99 10 13.98 10 15 C10.66 15 11.32 15 12 15 C12 15.66 12 16.32 12 17 C12.66 17 13.32 17 14 17 C14 17.66 14 18.32 14 19 C14.99 18.67 15.98 18.34 17 18 C19.6875 18.4375 19.6875 18.4375 22 19 C22 19.33 22 19.66 22 20 C20.39125 20.0928125 20.39125 20.0928125 18.75 20.1875 C14.87800021 20.61362317 14.87800021 20.61362317 13 23.5 C11 26 11 26 7.3125 26.875 C6.219375 26.91625 5.12625 26.9575 4 27 C0.43317757 23.43317757 2.35938784 17.0314297 2 12 C2 44.01 2 76.02 2 109 C1.67 108.34 1.34 107.68 1 107 C-8.57 107 -18.14 107 -28 107 C-28 106.67 -28 106.34 -28 106 C-18.76 106 -9.52 106 0 106 C0 101.38 0 96.76 0 92 C-8.91 92 -17.82 92 -27 92 C-27.495 91.01 -27.495 91.01 -28 90 C-18.76 90 -9.52 90 0 90 C0 85.71 0 81.42 0 77 C-9.24 77 -18.48 77 -28 77 C-28 76.34 -28 75.68 -28 75 C-18.76 75 -9.52 75 0 75 C0 70.71 0 66.42 0 62 C-5.61 62 -11.22 62 -17 62 C-17 61.67 -17 61.34 -17 61 C-11.39 61 -5.78 61 0 61 C0 52.09 0 43.18 0 34 C-9.24 34 -18.48 34 -28 34 C-28 37.96 -28 41.92 -28 46 C-19.75 46 -11.5 46 -3 46 C-3 46.33 -3 46.66 -3 47 C-11.58 47 -20.16 47 -29 47 C-29 67.46 -29 87.92 -29 109 C-29.66 109 -30.32 109 -31 109 C-31.17166281 81.3200316 -30.67860348 53.67113972 -30 26 C-31.64355469 26.03480469 -31.64355469 26.03480469 -33.3203125 26.0703125 C-37.34001088 25.99350298 -39.00005132 25.64701354 -42 23 C-42.8125 19.8125 -42.8125 19.8125 -43 17 C-47.05606165 17.46800711 -50.46588679 17.87953208 -54 20 C-52.64038652 15.92115955 -50.69708575 15.06183628 -47 13 C-44.125 12.75 -44.125 12.75 -42 13 C-42 13.99 -42 14.98 -42 16 C-41.34 16 -40.68 16 -40 16 C-39.67 18.31 -39.34 20.62 -39 23 C-37.03243548 22.96877057 -37.03243548 22.96877057 -35 22 C-33.6954344 19.00384054 -33.6954344 19.00384054 -33 16 C-32.34 16 -31.68 16 -31 16 C-30.7525 14.88625 -30.505 13.7725 -30.25 12.625 C-29 9 -29 9 -27.0625 7.5625 C-25 7 -25 7 -22 7 C-22 6.34 -22 5.68 -22 5 C-14.97381022 3.4943879 -8.10547081 4.35942357 -1 5 C-0.67 3.35 -0.34 1.7 0 0 Z " fill="#BA676A" transform="translate(161,120)"/>
<path d="M0 0 C2.13745922 0.25146579 3.45925779 0.45925779 5 2 C5.23287008 3.68183948 5.41264166 5.3712416 5.5625 7.0625 C5.64628906 7.98160156 5.73007813 8.90070312 5.81640625 9.84765625 C5.87699219 10.55792969 5.93757812 11.26820312 6 12 C6.92425781 11.24589844 6.92425781 11.24589844 7.8671875 10.4765625 C10 9 10 9 12.125 9.375 C13.07375 9.58125 14.0225 9.7875 15 10 C16.67034767 9.82359364 18.33714563 9.61184573 20 9.375 C24.4228908 8.8442531 26.32046872 9.37176337 30 12 C32.5 12.66666667 32.5 12.66666667 35 12 C36.70680947 10.37446717 38.37660195 8.70884005 40 7 C40.99 7 41.98 7 43 7 C43 7.99 43 8.98 43 10 C45.64 10 48.28 10 51 10 C51 10.99 51 11.98 51 13 C49.01432292 12.93489583 47.02864583 12.86979167 45.04296875 12.8046875 C42.68640281 12.86745538 42.68640281 12.86745538 40 15 C39.27617533 17.05925139 39.27617533 17.05925139 39 19 C40.32 19 41.64 19 43 19 C43 18.34 43 17.68 43 17 C44.98 17 46.96 17 49 17 C49 17.99 49 18.98 49 20 C48.04287109 20.19916016 48.04287109 20.19916016 47.06640625 20.40234375 C46.24011719 20.57894531 45.41382813 20.75554688 44.5625 20.9375 C43.32693359 21.19853516 43.32693359 21.19853516 42.06640625 21.46484375 C40.02338796 21.80752994 40.02338796 21.80752994 39 23 C38.80850919 26.63194641 38.80850919 26.63194641 40 30 C38.68 30.33 37.36 30.66 36 31 C36.04125 31.78375 36.0825 32.5675 36.125 33.375 C36 36 36 36 34 38 C29.54736965 38.40478458 26.15217057 37.58177926 22 36 C23.83656989 38.96731398 23.83656989 38.96731398 26 41 C25.34 42.32 24.68 43.64 24 45 C23.34 45 22.68 45 22 45 C22 44.01 22 43.02 22 42 C21.34 42 20.68 42 20 42 C20 41.34 20 40.68 20 40 C19.01 40.66 18.02 41.32 17 42 C13.8125 42.125 13.8125 42.125 11 42 C11 41.34 11 40.68 11 40 C9.824375 40.2784375 9.824375 40.2784375 8.625 40.5625 C6 41 6 41 4 40 C4.57584432 37.61435923 5.22227595 35.33317216 6 33 C3.525 33.495 3.525 33.495 1 34 C1 33.34 1 32.68 1 32 C0.195625 31.87625 -0.60875 31.7525 -1.4375 31.625 C-2.7059375 31.315625 -2.7059375 31.315625 -4 31 C-4.33 30.34 -4.66 29.68 -5 29 C-5 30.65 -5 32.3 -5 34 C-5.99 33.67 -6.98 33.34 -8 33 C-8 30.69 -8 28.38 -8 26 C-7.34 25.67 -6.68 25.34 -6 25 C-6 22.36 -6 19.72 -6 17 C-6.66 17 -7.32 17 -8 17 C-10.07511737 13.58215962 -10.07511737 13.58215962 -9.75 11.0625 C-9.5025 10.381875 -9.255 9.70125 -9 9 C-8.731875 8.113125 -8.46375 7.22625 -8.1875 6.3125 C-7 4 -7 4 -5.0625 3.375 C-4.0415625 3.189375 -4.0415625 3.189375 -3 3 C-2.505 2.46375 -2.01 1.9275 -1.5 1.375 C-1.005 0.92125 -0.51 0.4675 0 0 Z " fill="#F79C98" transform="translate(138,38)"/>
<path d="M0 0 C-0.5259375 0.804375 -0.5259375 0.804375 -1.0625 1.625 C-2.28924249 4.73274763 -1.72856431 6.79431703 -1 10 C-0.13375 9.7215625 -0.13375 9.7215625 0.75 9.4375 C3.26928708 8.94763862 4.57506565 9.24220802 7 10 C8.33217297 10.33794094 9.66536848 10.67190308 11 11 C14.25601751 20.8380744 14.25601751 20.8380744 13.1875 25.6875 C12.5996875 26.8321875 12.5996875 26.8321875 12 28 C11.34 28 10.68 28 10 28 C10 28.66 10 29.32 10 30 C6.97562661 31.5121867 4.33758466 31.17263369 1 31 C-1.4375 30 -1.4375 30 -3 29 C-3 29.99 -3 30.98 -3 32 C-5.64 32 -8.28 32 -11 32 C-11 31.34 -11 30.68 -11 30 C-11.99 30.33 -12.98 30.66 -14 31 C-16.68083716 31.14767323 -19.31868052 31.23091588 -22 31.25 C-22.72445312 31.270625 -23.44890625 31.29125 -24.1953125 31.3125 C-29.49081345 31.35158119 -29.49081345 31.35158119 -31.96875 29.640625 C-33.49226954 27.21684391 -33.55914538 25.79572691 -33 23 C-29.44035648 19.96383346 -26.57588204 19.68075242 -22 20 C-22 19.01 -22 18.02 -22 17 C-23.98 17 -25.96 17 -28 17 C-28 17.66 -28 18.32 -28 19 C-29.32 19 -30.64 19 -32 19 C-31.6875 16.625 -31.6875 16.625 -31 14 C-27.48746854 11.65831236 -26.13530644 11.50376323 -22 12 C-18.72415631 13.96550622 -17.27941311 15.05429407 -16.1875 18.75 C-16.125625 19.4925 -16.06375 20.235 -16 21 C-15.67 21 -15.34 21 -15 21 C-14.67 22.98 -14.34 24.96 -14 27 C-13.67 23.7 -13.34 20.4 -13 17 C-13.66 17 -14.32 17 -15 17 C-15 15.68 -15 14.36 -15 13 C-14.34 12.67 -13.68 12.34 -13 12 C-12.34444881 9.47266765 -12.34444881 9.47266765 -12 7 C-10.68 7 -9.36 7 -8 7 C-8 8.98 -8 10.96 -8 13 C-7.01 12.67 -6.02 12.34 -5 12 C-4.67 10.35 -4.34 8.7 -4 7 C-6.64 6.67 -9.28 6.34 -12 6 C-11.67 4.02 -11.34 2.04 -11 0 C-6.98195309 -0.84098656 -3.98196457 -1.05404945 0 0 Z " fill="#D19AAD" transform="translate(209,38)"/>
<path d="M0 0 C19.14 0 38.28 0 58 0 C58 1.65 58 3.3 58 5 C56.68 5.33 55.36 5.66 54 6 C53.20046862 9.28696233 52.90341064 10.71023192 54 14 C53.34 14.99 52.68 15.98 52 17 C51.67 17 51.34 17 51 17 C51.02320313 17.83144531 51.04640625 18.66289062 51.0703125 19.51953125 C51.08835938 20.60621094 51.10640625 21.69289063 51.125 22.8125 C51.14820313 23.89144531 51.17140625 24.97039063 51.1953125 26.08203125 C51 29 51 29 49 32 C48.67 26.39 48.34 20.78 48 15 C45.69 14.67 43.38 14.34 41 14 C43 12 43 12 46.125 11.875 C47.07375 11.91625 48.0225 11.9575 49 12 C48.505 9.525 48.505 9.525 48 7 C46.68 7 45.36 7 44 7 C43.67 7.99 43.34 8.98 43 10 C42.34 10 41.68 10 41 10 C41 8.68 41 7.36 41 6 C37.51400668 6.45913678 37.51400668 6.45913678 34 8 C32.45913678 11.51400668 32.45913678 11.51400668 32 15 C31.01 15 30.02 15 29 15 C29 16.32 29 17.64 29 19 C29.66 19 30.32 19 31 19 C31 23.29 31 27.58 31 32 C30.34 31.34 29.68 30.68 29 30 C28.34 30.33 27.68 30.66 27 31 C27.05800781 30.26394531 27.11601562 29.52789063 27.17578125 28.76953125 C27.51045482 22.44725221 27.51045482 22.44725221 24.9375 16.8125 C21.24802064 14.53601273 19.27062538 14.38991066 15 15 C13.30648177 15.95382062 11.63422932 16.94782496 10 18 C9.82984375 17.15695313 9.6596875 16.31390625 9.484375 15.4453125 C9.24203125 14.34960938 8.9996875 13.25390625 8.75 12.125 C8.51796875 11.03445313 8.2859375 9.94390625 8.046875 8.8203125 C7.27919623 5.9053241 7.27919623 5.9053241 5.015625 4.6796875 C4.01789063 4.34324219 4.01789063 4.34324219 3 4 C2.34 3.67 1.68 3.34 1 3 C0.67 4.32 0.34 5.64 0 7 C-1.125 2.25 -1.125 2.25 0 0 Z " fill="#EAC4C9" transform="translate(171,0)"/>
<path d="M0 0 C6.27 0 12.54 0 19 0 C18.01 0.495 18.01 0.495 17 1 C17 1.66 17 2.32 17 3 C17.598125 2.835 18.19625 2.67 18.8125 2.5 C21 2 21 2 24 2 C23.773125 2.5775 23.54625 3.155 23.3125 3.75 C23.209375 4.4925 23.10625 5.235 23 6 C23.680625 6.8971875 23.680625 6.8971875 24.375 7.8125 C26.63646331 10.85677753 26.80567881 13.2431236 27 17 C25.93840381 22.20182132 23.47559062 25.15855774 20 29 C19.67 28.01 19.34 27.02 19 26 C18.278125 26.185625 17.55625 26.37125 16.8125 26.5625 C13.87173027 27.01995307 11.85896942 26.73516357 9 26 C9 25.34 9 24.68 9 24 C7.68 23.34 6.36 22.68 5 22 C4.34 22.66 3.68 23.32 3 24 C2.01 24 1.02 24 0 24 C0 16.08 0 8.16 0 0 Z " fill="#DAE8E7" transform="translate(0,0)"/>
<path d="M0 0 C0.66 0 1.32 0 2 0 C2 2.97 2 5.94 2 9 C3.62490954 9.02698189 5.24994633 9.04638757 6.875 9.0625 C7.77992187 9.07410156 8.68484375 9.08570312 9.6171875 9.09765625 C12.0168585 9.16249257 12.0168585 9.16249257 14 8 C15.33367521 8.33196283 16.66694421 8.66555844 18 9 C19.79214292 8.99458567 21.58442875 8.95023409 23.375 8.875 C28.02670985 8.82531552 31.04020035 9.36013357 35 12 C37 14 37 14 37 18 C37.66 18 38.32 18 39 18 C39.495 20.97 39.495 20.97 40 24 C42.39719432 24.67958603 42.39719432 24.67958603 45 25 C45.66 24.34 46.32 23.68 47 23 C48.40742268 28.27783506 49 32.50170374 49 38 C48.01 38.33 47.02 38.66 46 39 C46 37.35 46 35.7 46 34 C45.01 34 44.02 34 43 34 C42.67 33.34 42.34 32.68 42 32 C41.113125 32.0825 40.22625 32.165 39.3125 32.25 C35.26898131 31.94482878 33.79385882 30.87603114 31 28 C31 27.01 31 26.02 31 25 C27.37 25.33 23.74 25.66 20 26 C17 20.25 17 20.25 17 18 C16.34 18 15.68 18 15 18 C15 17.34 15 16.68 15 16 C10.38 15.34 5.76 14.68 1 14 C1 13.01 1 12.02 1 11 C0.34 10.67 -0.32 10.34 -1 10 C-0.67 6.7 -0.34 3.4 0 0 Z " fill="#DEA3A1" transform="translate(54,102)"/>
<path d="M0 0 C1.32 0.66 2.64 1.32 4 2 C4 3.65 4 5.3 4 7 C6.64 7.33 9.28 7.66 12 8 C11.505 5.525 11.505 5.525 11 3 C12.65 2.67 14.3 2.34 16 2 C16.495 3.485 16.495 3.485 17 5 C16.67 5.66 16.34 6.32 16 7 C16.99 7.33 17.98 7.66 19 8 C17.76075855 12.95696581 16.21422242 15.11658466 12 18 C11.34 17.34 10.68 16.68 10 16 C10 15.01 10 14.02 10 13 C9.236875 13.20625 8.47375 13.4125 7.6875 13.625 C5 14 5 14 2 12 C1.3125 8.375 1.3125 8.375 1 5 C-4.29416844 4.94694223 -4.29416844 4.94694223 -8.64453125 7.51953125 C-10.8514581 10.54054063 -12 12.18087991 -12 16 C-9.69 16 -7.38 16 -5 16 C-7.52788007 18.79872437 -9.20411134 20.45773019 -13 21 C-13.34160156 20.36320312 -13.68320313 19.72640625 -14.03515625 19.0703125 C-16.79277208 16.16467355 -19.63364155 16.17405694 -23.4375 15.875 C-31.54178571 15.14037815 -31.54178571 15.14037815 -35 13 C-34.47731534 10.23723823 -33.89130413 7.6739124 -33 5 C-32.67 3.68 -32.34 2.36 -32 1 C-24.08 1 -16.16 1 -8 1 C-8 1.66 -8 2.32 -8 3 C-5.36 3 -2.72 3 0 3 C0 2.01 0 1.02 0 0 Z " fill="#F78B8B" transform="translate(206,67)"/>
<path d="M0 0 C3.3 0 6.6 0 10 0 C10 8.25 10 16.5 10 25 C1.42 25 -7.16 25 -16 25 C-16.33 25.66 -16.66 26.32 -17 27 C-17 20.07 -17 13.14 -17 6 C-16.67 6.66 -16.34 7.32 -16 8 C-12.9600352 8.69337792 -12.9600352 8.69337792 -9.4375 9.125 C-7.64119141 9.37636719 -7.64119141 9.37636719 -5.80859375 9.6328125 C-4.88175781 9.75398437 -3.95492187 9.87515625 -3 10 C-2.48806076 7.96077536 -1.98156418 5.92164777 -1.5 3.875 C-1 2 -1 2 0 0 Z " fill="#F18183" transform="translate(150,127)"/>
<path d="M0 0 C0.33 0 0.66 0 1 0 C1.61243978 31.00107127 2.20501715 61.991944 2 93 C1.505 92.01 1.505 92.01 1 91 C-8.57 91 -18.14 91 -28 91 C-28 90.67 -28 90.34 -28 90 C-18.76 90 -9.52 90 0 90 C0 85.38 0 80.76 0 76 C-8.91 76 -17.82 76 -27 76 C-27.33 75.34 -27.66 74.68 -28 74 C-18.76 74 -9.52 74 0 74 C0 69.71 0 65.42 0 61 C-9.24 61 -18.48 61 -28 61 C-28 60.34 -28 59.68 -28 59 C-18.76 59 -9.52 59 0 59 C0 54.71 0 50.42 0 46 C-5.61 46 -11.22 46 -17 46 C-17 45.67 -17 45.34 -17 45 C-11.39 45 -5.78 45 0 45 C0 36.09 0 27.18 0 18 C-8.91 18 -17.82 18 -27 18 C-27 17.34 -27 16.68 -27 16 C-18.42 16 -9.84 16 -1 16 C-1 12.04 -1 8.08 -1 4 C-9.25 4 -17.5 4 -26 4 C-26 3.67 -26 3.34 -26 3 C-17.42 3 -8.84 3 0 3 C0 2.01 0 1.02 0 0 Z " fill="#955B5D" transform="translate(161,136)"/>
<path d="M0 0 C9.24 0 18.48 0 28 0 C28 4.29 28 8.58 28 13 C18.98126173 13.09109837 9.96276635 13.15786934 1 12 C0.67 11.67 0.34 11.34 0 11 C0 7.37 0 3.74 0 0 Z " fill="#CED7D5" transform="translate(133,182)"/>
<path d="M0 0 C13.86 0.495 13.86 0.495 28 1 C28 4.96 28 8.92 28 13 C18.76 13 9.52 13 0 13 C0 8.71 0 4.42 0 0 Z " fill="#D3D4D3" transform="translate(133,167)"/>
<path d="M0 0 C9.24 0 18.48 0 28 0 C28 4.29 28 8.58 28 13 C23.52058364 12.8599251 19.04155937 12.71322676 14.5625 12.5625 C13.28310547 12.52318359 12.00371094 12.48386719 10.68554688 12.44335938 C9.47060547 12.40146484 8.25566406 12.35957031 7.00390625 12.31640625 C5.31503296 12.26141968 5.31503296 12.26141968 3.59204102 12.20532227 C1 12 1 12 0 11 C0 7.37 0 3.74 0 0 Z " fill="#CED1CF" transform="translate(133,197)"/>
<path d="M0 0 C1.32 0 2.64 0 4 0 C4 2.97 4 5.94 4 9 C4.66 8.67 5.32 8.34 6 8 C13.09225092 7.31365314 13.09225092 7.31365314 16.5625 9.9375 C18.57600995 14.22715164 18.39129804 17.50761596 17 22 C15.1875 24.5625 15.1875 24.5625 12 26 C8.04 26 4.08 26 0 26 C0 17.42 0 8.84 0 0 Z " fill="#2F2E60" transform="translate(138,43)"/>
<path d="M0 0 C4.23582327 -0.04938628 8.47149465 -0.08571263 12.70751953 -0.10986328 C14.14895547 -0.11992963 15.59037095 -0.1335838 17.03173828 -0.15087891 C19.10193934 -0.17510012 21.17187076 -0.18647641 23.2421875 -0.1953125 C25.11173096 -0.21102295 25.11173096 -0.21102295 27.01904297 -0.22705078 C30 0 30 0 32 2 C32.40532789 4.99942639 32.07778736 6.80596537 30.94921875 9.62109375 C29 12 29 12 25.53125 12.671875 C24.18819045 12.72220662 22.84399988 12.74744 21.5 12.75 C16.17633925 12.83207207 16.17633925 12.83207207 11 14 C10.26676204 16.01508358 10.26676204 16.01508358 10 18 C9.82984375 17.15695313 9.6596875 16.31390625 9.484375 15.4453125 C9.24203125 14.34960938 8.9996875 13.25390625 8.75 12.125 C8.51796875 11.03445313 8.2859375 9.94390625 8.046875 8.8203125 C7.27919623 5.9053241 7.27919623 5.9053241 5.015625 4.6796875 C4.01789063 4.34324219 4.01789063 4.34324219 3 4 C2.34 3.67 1.68 3.34 1 3 C0.67 4.32 0.34 5.64 0 7 C-1.125 2.25 -1.125 2.25 0 0 Z " fill="#F7C0C0" transform="translate(171,0)"/>
<path d="M0 0 C0 1.32 0 2.64 0 4 C0.66 4 1.32 4 2 4 C2.33 2.68 2.66 1.36 3 0 C5.475 0.495 5.475 0.495 8 1 C8 2.65 8 4.3 8 6 C6.02 6.33 4.04 6.66 2 7 C3.65 7.33 5.3 7.66 7 8 C7 13.94 7 19.88 7 26 C5.68 26 4.36 26 3 26 C3 21.71 3 17.42 3 13 C0.69 13 -1.62 13 -4 13 C-4 17.62 -4 22.24 -4 27 C-5.65 27 -7.3 27 -9 27 C-9 22.38 -9 17.76 -9 13 C-9.99 13 -10.98 13 -12 13 C-12 11.68 -12 10.36 -12 9 C-11.01 9 -10.02 9 -9 9 C-9.061875 8.071875 -9.12375 7.14375 -9.1875 6.1875 C-9 3 -9 3 -7.875 1.125 C-5.21965017 -0.4682099 -3.03210482 -0.20214032 0 0 Z " fill="#2E2C5F" transform="translate(212,6)"/>
<path d="M0 0 C0.78761719 0.25007812 1.57523438 0.50015625 2.38671875 0.7578125 C4.3125 1.875 4.3125 1.875 5.08203125 3.9921875 C5.15808594 4.61351562 5.23414063 5.23484375 5.3125 5.875 C8.7775 5.38 8.7775 5.38 12.3125 4.875 C12.3125 4.215 12.3125 3.555 12.3125 2.875 C14.2925 2.545 16.2725 2.215 18.3125 1.875 C18.3125 4.875 18.3125 4.875 16.6875 7 C13.76031069 9.31093893 12.02589772 9.72646409 8.3125 9.875 C6.95125 9.39353516 6.95125 9.39353516 5.5625 8.90234375 C1.95466446 7.76188612 -1.03558114 7.57473624 -4.8125 7.5625 C-6.01132813 7.54574219 -7.21015625 7.52898437 -8.4453125 7.51171875 C-11.95272412 7.90471788 -13.06027145 8.66168929 -15.6875 10.875 C-16.821875 10.99875 -17.95625 11.1225 -19.125 11.25 C-22.838377 11.53726728 -22.838377 11.53726728 -25.0625 14.375 C-27.6875 16.875 -27.6875 16.875 -36.6875 17.875 C-37.0175 32.395 -37.3475 46.915 -37.6875 61.875 C-38.0175 61.875 -38.3475 61.875 -38.6875 61.875 C-38.6875 41.415 -38.6875 20.955 -38.6875 -0.125 C-37.6975 0.37 -37.6975 0.37 -36.6875 0.875 C-36.2734375 4.03515625 -36.2734375 4.03515625 -36.0625 7.9375 C-35.98773438 9.22785156 -35.91296875 10.51820313 -35.8359375 11.84765625 C-35.78695312 12.84667969 -35.73796875 13.84570312 -35.6875 14.875 C-32.32932335 14.76555736 -32.32932335 14.76555736 -28.6875 13.875 C-28.048125 13.05 -27.40875 12.225 -26.75 11.375 C-24.6875 8.875 -24.6875 8.875 -20.75 8.25 C-19.70972656 8.18619141 -19.70972656 8.18619141 -18.6484375 8.12109375 C-15.8749629 7.77302821 -13.99208632 6.38944244 -11.6875 4.875 C-10.6975 4.875 -9.7075 4.875 -8.6875 4.875 C-8.6875 4.215 -8.6875 3.555 -8.6875 2.875 C-10.0075 2.545 -11.3275 2.215 -12.6875 1.875 C-11.82125 1.689375 -11.82125 1.689375 -10.9375 1.5 C-8.67509 0.9792107 -8.67509 0.9792107 -6.83984375 -0.234375 C-4.05517164 -1.38665311 -2.81935985 -0.95998038 0 0 Z " fill="#E7A3A0" transform="translate(200.6875,131.125)"/>
<path d="M0 0 C0.33 0 0.66 0 1 0 C1 1.65 1 3.3 1 5 C1.99 4.67 2.98 4.34 4 4 C6.43155255 12.72909873 5.55053099 19.37481724 3 28 C3.66 28.33 4.32 28.66 5 29 C5 31.31 5 33.62 5 36 C4.34 36 3.68 36 3 36 C3 38.64 3 41.28 3 44 C3.66 44.33 4.32 44.66 5 45 C4.67 46.32 4.34 47.64 4 49 C3.34 49 2.68 49 2 49 C2.165 49.495 2.33 49.99 2.5 50.5 C3.20688818 54.03444089 3.06005155 57.39690701 3 61 C3.66 61 4.32 61 5 61 C5.2954439 66.02254631 4.98514628 68.89542386 2 73 C2.99 73.33 3.98 73.66 5 74 C5 76.31 5 78.62 5 81 C3.35 81 1.7 81 0 81 C0 54.27 0 27.54 0 0 Z " fill="#D7CCCC" transform="translate(163,148)"/>
<path d="M0 0 C2.75329021 1.79562405 4.52627461 3.05254922 6 6 C6.68571429 12.97142857 6.68571429 12.97142857 4 17 C0.67169602 19.21886932 -1.13955335 19.76241935 -5.0625 19.47265625 C-8.66317126 18.59426669 -10.00772296 17.05067422 -12 14 C-12.69663302 10.842311 -12.70219677 8.15703099 -12 5 C-8.6691068 0.05412828 -5.84239298 -0.93895602 0 0 Z " fill="#443C6A" transform="translate(193,14)"/>
<path d="M0 0 C0.33 0 0.66 0 1 0 C1 2.64 1 5.28 1 8 C1.66 8.33 2.32 8.66 3 9 C3 10.98 3 12.96 3 15 C7.10700777 14.95996945 7.10700777 14.95996945 11 14 C12.68983507 11.71019091 13.18962861 9.78565167 14 7 C18.29 7 22.58 7 27 7 C27 10.96 27 14.92 27 19 C18.42 19 9.84 19 1 19 C0.67 19.66 0.34 20.32 0 21 C0 14.07 0 7.14 0 0 Z " fill="#F28988" transform="translate(133,133)"/>
<path d="M0 0 C0.66 0 1.32 0 2 0 C2 2.97 2 5.94 2 9 C3.62490954 9.02698189 5.24994633 9.04638757 6.875 9.0625 C7.77992187 9.07410156 8.68484375 9.08570312 9.6171875 9.09765625 C12.0168585 9.16249257 12.0168585 9.16249257 14 8 C15.33367521 8.33196283 16.66694421 8.66555844 18 9 C19.79214292 8.99458567 21.58442875 8.95023409 23.375 8.875 C28.02670985 8.82531552 31.04020035 9.36013357 35 12 C37 14 37 14 37 18 C37.66 18 38.32 18 39 18 C39.495 20.97 39.495 20.97 40 24 C39.34 24 38.68 24 38 24 C37.32880451 22.5437455 36.66318193 21.08492133 36 19.625 C35.62875 18.81289062 35.2575 18.00078125 34.875 17.1640625 C34 15 34 15 34 13 C31.52372901 13.63921965 31.52372901 13.63921965 29 15 C28.31246699 16.65816784 27.64438717 18.32459336 27 20 C24.7309707 21.05888034 23.34701198 21.04082494 20.875 20.75 C19 20 19 20 17 17 C17 16.01 17 15.02 17 14 C15.2675 14.0928125 15.2675 14.0928125 13.5 14.1875 C8.10171141 14.20671099 3.80877618 12.40438809 -1 10 C-0.67 6.7 -0.34 3.4 0 0 Z " fill="#EB7E7F" transform="translate(54,102)"/>
<path d="M0 0 C2.67578125 1.5390625 2.67578125 1.5390625 5 4 C5.37398847 6.81239326 5.48293015 8.97592155 5.3125 11.75 C5.28994141 12.44738281 5.26738281 13.14476562 5.24414062 13.86328125 C5.18547048 15.57644935 5.09579256 17.28850623 5 19 C2.89646505 19.0810206 0.79204048 19.13919907 -1.3125 19.1875 C-2.48425781 19.22230469 -3.65601563 19.25710937 -4.86328125 19.29296875 C-8 19 -8 19 -9.88671875 17.64453125 C-11 16 -11 16 -11.5 13.5 C-11 11 -11 11 -8.875 9.1875 C-5.6892698 7.87165492 -3.41335136 7.76185921 0 8 C0 7.01 0 6.02 0 5 C-1.98 5 -3.96 5 -6 5 C-6 5.66 -6 6.32 -6 7 C-7.32 7 -8.64 7 -10 7 C-9.6875 4.625 -9.6875 4.625 -9 2 C-5.48746854 -0.34168764 -4.13530644 -0.49623677 0 0 Z " fill="#3B386A" transform="translate(187,50)"/>
<path d="M0 0 C2.5 2.25 2.5 2.25 4 5 C4 6.65 4 8.3 4 10 C-0.29 10 -4.58 10 -9 10 C-8.01 11.485 -8.01 11.485 -7 13 C-3.52661718 13.37550085 -0.38707002 12.77418743 3 12 C2.6875 13.875 2.6875 13.875 2 16 C-1.69669191 18.46446127 -4.71069998 18.66587924 -9 18 C-11.82258404 16.33539916 -12.70338439 15.03912398 -13.59765625 11.90625 C-14.31490178 7.72812069 -14.4290144 5.71009279 -12.1875 2 C-8.30541239 -1.54933724 -4.93906083 -1.42510451 0 0 Z " fill="#322F61" transform="translate(171,51)"/>
<path d="M0 0 C4.45850936 0.79616239 5.90783917 1.93313458 8.5 5.625 C9.125 9.125 9.125 9.125 8.5 12.625 C5.90783917 16.31686542 4.45850936 17.45383761 0 18.25 C-4.45850936 17.45383761 -5.90783917 16.31686542 -8.5 12.625 C-9.125 9.125 -9.125 9.125 -8.5 5.625 C-5.90783917 1.93313458 -4.45850936 0.79616239 0 0 Z " fill="#313E70" transform="translate(15.5,6.375)"/>
<path d="M0 0 C0.99 0.66 1.98 1.32 3 2 C3 2.66 3 3.32 3 4 C2.01 4 1.02 4 0 4 C-0.33 4.66 -0.66 5.32 -1 6 C-1 5.34 -1 4.68 -1 4 C-4.72614153 5.11854586 -4.72614153 5.11854586 -7 8 C-10.04909772 8.81728392 -13.11858951 9.41082939 -16.21484375 10.0234375 C-19.10898122 10.69805149 -19.10898122 10.69805149 -20.125 12.953125 C-20.41375 13.62859375 -20.7025 14.3040625 -21 15 C-22.84765625 16.2734375 -22.84765625 16.2734375 -25.0625 17.375 C-28.42012142 19.12398608 -31.56316439 20.98562443 -34.6875 23.125 C-43.34858247 29 -43.34858247 29 -47 29 C-46 26 -46 26 -43.875 24.4375 C-40.9667737 21.97182988 -39.77946791 19.99583594 -37.875 16.75 C-34.86149581 12.19299366 -34.86149581 12.19299366 -31.10546875 11.3515625 C-28.33862523 11.37287323 -25.72915346 11.55583398 -23 12 C-22.67 10.68 -22.34 9.36 -22 8 C-19.1222883 7.38957631 -16.37568488 6.94523552 -13.4375 6.6875 C-9.48853771 5.89770754 -8.67757139 4.85031793 -6 2 C-2.9375 0.625 -2.9375 0.625 0 0 Z " fill="#DCC9C8" transform="translate(79,12)"/>
<path d="M0 0 C2.125 0.125 2.125 0.125 4 1 C4.33 1.99 4.66 2.98 5 4 C3.02 4 1.04 4 -1 4 C-0.98839844 5.02738281 -0.97679687 6.05476563 -0.96484375 7.11328125 C-0.90275527 15.13821757 -1.05283219 23.01672842 -2 31 C-2.66 31 -3.32 31 -4 31 C-4.33 30.34 -4.66 29.68 -5 29 C-5 30.65 -5 32.3 -5 34 C-5.99 33.67 -6.98 33.34 -8 33 C-8 30.69 -8 28.38 -8 26 C-7.34 25.67 -6.68 25.34 -6 25 C-6 22.36 -6 19.72 -6 17 C-6.66 17 -7.32 17 -8 17 C-10.07511737 13.58215962 -10.07511737 13.58215962 -9.75 11.0625 C-9.5025 10.381875 -9.255 9.70125 -9 9 C-8.731875 8.113125 -8.46375 7.22625 -8.1875 6.3125 C-7 4 -7 4 -5.0625 3.375 C-4.0415625 3.189375 -4.0415625 3.189375 -3 3 C-2.505 2.46375 -2.01 1.9275 -1.5 1.375 C-1.005 0.92125 -0.51 0.4675 0 0 Z " fill="#F8A4A9" transform="translate(138,38)"/>
<path d="M0 0 C1.7015625 0.37125 1.7015625 0.37125 3.4375 0.75 C4.4275 0.75 5.4175 0.75 6.4375 0.75 C6.210625 1.3275 5.98375 1.905 5.75 2.5 C5.646875 3.2425 5.54375 3.985 5.4375 4.75 C6.118125 5.6471875 6.118125 5.6471875 6.8125 6.5625 C9.07396331 9.60677753 9.24317881 11.9931236 9.4375 15.75 C8.37590381 20.95182132 5.91309062 23.90855774 2.4375 27.75 C2.1075 26.76 1.7775 25.77 1.4375 24.75 C0.715625 24.935625 -0.00625 25.12125 -0.75 25.3125 C-3.69076973 25.76995307 -5.70353058 25.48516357 -8.5625 24.75 C-8.5625 24.09 -8.5625 23.43 -8.5625 22.75 C-9.201875 22.440625 -9.84125 22.13125 -10.5 21.8125 C-12.5625 20.75 -12.5625 20.75 -13.5625 19.75 C-13.63455511 18.06391034 -13.64636068 16.37499341 -13.625 14.6875 C-13.61597656 13.76839844 -13.60695313 12.84929688 -13.59765625 11.90234375 C-13.58605469 11.19207031 -13.57445312 10.48179688 -13.5625 9.75 C-12.5725 9.42 -11.5825 9.09 -10.5625 8.75 C-10.53671875 9.35328125 -10.5109375 9.9565625 -10.484375 10.578125 C-10.2153521 14.36890228 -9.99893452 17.06177634 -7.9375 20.3125 C-4.58530766 22.34145852 -2.40998569 22.29964081 1.4375 21.75 C4.02083333 20.33333333 4.02083333 20.33333333 5.4375 17.75 C5.76844958 13.97717474 5.63504817 11.34264452 4.4375 7.75 C2.43014169 7.01639432 2.43014169 7.01639432 0.0625 6.6875 C-3.26601803 6.11829089 -4.65177425 5.69048384 -7.5625 3.75 C-5.03917649 0.41921296 -4.29362324 -0.30130689 0 0 Z " fill="#D2E0E9" transform="translate(17.5625,1.25)"/>
<path d="M0 0 C0.99 0.33 1.98 0.66 3 1 C2.979375 2.11375 2.95875 3.2275 2.9375 4.375 C2.73619282 7.83215921 2.73619282 7.83215921 4 10 C4.66 10 5.32 10 6 10 C6 10.99 6 11.98 6 13 C6.99 12.67 7.98 12.34 9 12 C9 12.99 9 13.98 9 15 C9.66 15 10.32 15 11 15 C11 15.66 11 16.32 11 17 C11.66 17 12.32 17 13 17 C13 17.66 13 18.32 13 19 C13.99 18.67 14.98 18.34 16 18 C18.6875 18.4375 18.6875 18.4375 21 19 C21 19.33 21 19.66 21 20 C19.39125 20.0928125 19.39125 20.0928125 17.75 20.1875 C13.87800021 20.61362317 13.87800021 20.61362317 12 23.5 C10 26 10 26 6.3125 26.875 C5.219375 26.91625 4.12625 26.9575 3 27 C0.57616482 24.57616482 1.46645135 18.40570963 1.28125 15.125 C1.34864552 12.1350199 1.34864552 12.1350199 0 11 C-0.07226502 9.14712498 -0.0838122 7.29166122 -0.0625 5.4375 C-0.05347656 4.42558594 -0.04445312 3.41367188 -0.03515625 2.37109375 C-0.02355469 1.58863281 -0.01195312 0.80617188 0 0 Z " fill="#F88B8B" transform="translate(162,120)"/>
<path d="M0 0 C0 0.99 0 1.98 0 3 C2.64 3 5.28 3 8 3 C8 3.99 8 4.98 8 6 C6.01432292 5.93489583 4.02864583 5.86979167 2.04296875 5.8046875 C-0.31359719 5.86745538 -0.31359719 5.86745538 -3 8 C-3.72382467 10.05925139 -3.72382467 10.05925139 -4 12 C-2.68 12 -1.36 12 0 12 C0 11.34 0 10.68 0 10 C1.98 10 3.96 10 6 10 C6 10.99 6 11.98 6 13 C5.36191406 13.13277344 4.72382813 13.26554687 4.06640625 13.40234375 C2.82697266 13.66724609 2.82697266 13.66724609 1.5625 13.9375 C0.73878906 14.11152344 -0.08492187 14.28554688 -0.93359375 14.46484375 C-2.97661204 14.80752994 -2.97661204 14.80752994 -4 16 C-4.19149081 19.63194641 -4.19149081 19.63194641 -3 23 C-5.31 23.66 -7.62 24.32 -10 25 C-10.33 24.34 -10.66 23.68 -11 23 C-10.01 22.34 -9.02 21.68 -8 21 C-7.67 20.01 -7.34 19.02 -7 18 C-7.721875 18.33 -8.44375 18.66 -9.1875 19 C-12.01697427 20.00603529 -14.02895466 20.16977402 -17 20 C-17.66 18.68 -18.32 17.36 -19 16 C-14.71 16 -10.42 16 -6 16 C-7.00193437 12.20696275 -7.81024227 9.28463659 -10 6 C-8.90398831 4.99106869 -7.79786082 3.99311775 -6.6875 3 C-6.07261719 2.443125 -5.45773438 1.88625 -4.82421875 1.3125 C-3 0 -3 0 0 0 Z " fill="#D893A5" transform="translate(181,45)"/>
<path d="M0 0 C2 2 2 2 2 5 C-0.64 4.67 -3.28 4.34 -6 4 C-6 4.66 -6 5.32 -6 6 C-3.36 6.99 -0.72 7.98 2 9 C2.35789474 14.36842105 2.35789474 14.36842105 0.9375 16.875 C-2.07482516 18.62409203 -4.59502627 18.30401551 -8 18 C-8.99 17.34 -9.98 16.68 -11 16 C-11 14.68 -11 13.36 -11 12 C-7.97580475 12.58803797 -4.98241547 13.22678118 -2 14 C-2.92256283 11.56877817 -2.92256283 11.56877817 -6.5 10.8125 C-7.655 10.214375 -8.81 9.61625 -10 9 C-10.9375 5.3125 -10.9375 5.3125 -11 2 C-7.3851134 -1.6148866 -4.80208868 -1.15605838 0 0 Z " fill="#3D2E5C" transform="translate(218,51)"/>
<path d="M0 0 C1.32 0.66 2.64 1.32 4 2 C4 3.65 4 5.3 4 7 C6.64 7.33 9.28 7.66 12 8 C11.67 6.35 11.34 4.7 11 3 C12.65 2.67 14.3 2.34 16 2 C16.33 2.99 16.66 3.98 17 5 C16.67 5.66 16.34 6.32 16 7 C16.99 7.33 17.98 7.66 19 8 C17.76075855 12.95696581 16.21422242 15.11658466 12 18 C11.34 17.34 10.68 16.68 10 16 C10 15.01 10 14.02 10 13 C9.236875 13.20625 8.47375 13.4125 7.6875 13.625 C5 14 5 14 2 12 C1.3125 8.375 1.3125 8.375 1 5 C-1.64 4.67 -4.28 4.34 -7 4 C-7 3.67 -7 3.34 -7 3 C-4.69 3 -2.38 3 0 3 C0 2.01 0 1.02 0 0 Z " fill="#FA9B97" transform="translate(206,67)"/>
<path d="M0 0 C2.8670615 2.8670615 4 4.91591468 4 9 C4.969375 8.979375 5.93875 8.95875 6.9375 8.9375 C10 9 10 9 11 10 C11.66 9.34 12.32 8.68 13 8 C14.40742268 13.27783506 15 17.50170374 15 23 C14.01 23.33 13.02 23.66 12 24 C12 22.35 12 20.7 12 19 C11.01 19 10.02 19 9 19 C8.67 18.34 8.34 17.68 8 17 C6.6696875 17.12375 6.6696875 17.12375 5.3125 17.25 C1.28566635 16.94608803 -0.18236593 15.81763407 -3 13 C-3 12.34 -3 11.68 -3 11 C-1.68 11 -0.36 11 1 11 C0.67 7.37 0.34 3.74 0 0 Z " fill="#E09A9A" transform="translate(88,117)"/>
<path d="M0 0 C1.2684375 0.2475 1.2684375 0.2475 2.5625 0.5 C6.09360142 1.01361475 9.43698784 1.06986298 13 1 C14.66666667 1 16.33333333 1 18 1 C18 5.95 18 10.9 18 16 C17.34 16 16.68 16 16 16 C15.67 12.37 15.34 8.74 15 5 C12.69 4.67 10.38 4.34 8 4 C8 8.62 8 13.24 8 18 C6.35 18 4.7 18 3 18 C3 13.38 3 8.76 3 4 C2.01 4 1.02 4 0 4 C0 2.68 0 1.36 0 0 Z " fill="#3A366A" transform="translate(200,15)"/>
<path d="M0 0 C3.3 0 6.6 0 10 0 C10 1.65 10 3.3 10 5 C8.68 5.33 7.36 5.66 6 6 C5.20046862 9.28696233 4.90341064 10.71023192 6 14 C5.01 15.485 5.01 15.485 4 17 C3.67 17 3.34 17 3 17 C3.02320313 17.83144531 3.04640625 18.66289062 3.0703125 19.51953125 C3.09738281 21.14955078 3.09738281 21.14955078 3.125 22.8125 C3.14820313 23.89144531 3.17140625 24.97039063 3.1953125 26.08203125 C3 29 3 29 1 32 C0.67 26.39 0.34 20.78 0 15 C-2.31 14.67 -4.62 14.34 -7 14 C-5 12 -5 12 -1.875 11.875 C-0.92625 11.91625 0.0225 11.9575 1 12 C1 9.69 1 7.38 1 5 C-0.32 5 -1.64 5 -3 5 C-2.67 4.01 -2.34 3.02 -2 2 C-1.34 2 -0.68 2 0 2 C0 1.34 0 0.68 0 0 Z " fill="#EDCAD1" transform="translate(219,0)"/>
<path d="M0 0 C0 0.66 0 1.32 0 2 C1.32 2 2.64 2 4 2 C4 1.34 4 0.68 4 0 C5.98 0 7.96 0 10 0 C10 0.66 10 1.32 10 2 C10.515625 2.103125 11.03125 2.20625 11.5625 2.3125 C14.86026435 3.24263866 17.86633332 4.61395512 21 6 C17.74610012 8.16926659 16.86604043 8.24080049 13.11328125 8.1953125 C11.7065918 8.18564453 11.7065918 8.18564453 10.27148438 8.17578125 C8.80678711 8.15064453 8.80678711 8.15064453 7.3125 8.125 C6.32443359 8.11597656 5.33636719 8.10695312 4.31835938 8.09765625 C1.87866235 8.0740843 -0.56054697 8.04118022 -3 8 C-3.33 5.69 -3.66 3.38 -4 1 C-2 0 -2 0 0 0 Z " fill="#D3D7D7" transform="translate(138,157)"/>
<path d="M0 0 C0.33 0 0.66 0 1 0 C1 11.88 1 23.76 1 36 C0.67 35.34 0.34 34.68 0 34 C-9.57 34 -19.14 34 -29 34 C-29 33.67 -29 33.34 -29 33 C-19.76 33 -10.52 33 -1 33 C-1 28.38 -1 23.76 -1 19 C-9.91 19 -18.82 19 -28 19 C-28.33 18.34 -28.66 17.68 -29 17 C-19.76 17 -10.52 17 -1 17 C-0.67 11.39 -0.34 5.78 0 0 Z " fill="#7E6264" transform="translate(162,193)"/>
<path d="M0 0 C1.32 0 2.64 0 4 0 C4 1.98 4 3.96 4 6 C5.32 6 6.64 6 8 6 C8 7.32 8 8.64 8 10 C6.68 10 5.36 10 4 10 C4.33 12.97 4.66 15.94 5 19 C5.99 19.33 6.98 19.66 8 20 C8 21.32 8 22.64 8 24 C5.125 24.1875 5.125 24.1875 2 24 C-0.28062828 20.57905758 -0.21925007 19.31812778 -0.125 15.3125 C-0.10695312 14.31863281 -0.08890625 13.32476562 -0.0703125 12.30078125 C-0.04710937 11.54152344 -0.02390625 10.78226563 0 10 C-0.99 10 -1.98 10 -3 10 C-3 8.68 -3 7.36 -3 6 C-2.34 5.67 -1.68 5.34 -1 5 C-0.34444881 2.47266765 -0.34444881 2.47266765 0 0 Z " fill="#282B6C" transform="translate(197,45)"/>
<path d="M0 0 C-0.39832031 0.44730469 -0.79664062 0.89460938 -1.20703125 1.35546875 C-2.00173828 2.26232422 -2.00173828 2.26232422 -2.8125 3.1875 C-3.59560547 4.07501953 -3.59560547 4.07501953 -4.39453125 4.98046875 C-7.8539781 9.33213304 -9.35730086 12.70671992 -10 18.25 C-10.75076636 23.84257313 -12.0314249 28.7206395 -14 34 C-14.99 34 -15.98 34 -17 34 C-17.2914686 28.26778418 -16.95653344 25.92755573 -14 21 C-14.0648916 19.08569778 -14.13117039 17.17138577 -14.21484375 15.2578125 C-13.72769422 10.13831381 -10.76553613 5.14118211 -7.53125 1.21875 C-5.15447931 -0.67296545 -2.924117 -0.19494113 0 0 Z " fill="#D3CAC9" transform="translate(33,51)"/>
<path d="M0 0 C1.65 0 3.3 0 5 0 C5 8.91 5 17.82 5 27 C3.35 27 1.7 27 0 27 C0 18.09 0 9.18 0 0 Z " fill="#3E396B" transform="translate(173,6)"/>
<path d="M0 0 C1.0725 0.103125 2.145 0.20625 3.25 0.3125 C3.25 2.3125 3.25 2.3125 0.875 4.8125 C-0.424375 6.05 -0.424375 6.05 -1.75 7.3125 C-2.41 7.9725 -3.07 8.6325 -3.75 9.3125 C-4.925625 9.498125 -4.925625 9.498125 -6.125 9.6875 C-9.52120683 10.49612067 -10.68346023 11.50791031 -12.75 14.3125 C-12.894375 15.446875 -13.03875 16.58125 -13.1875 17.75 C-13.88971769 22.19737873 -15.30909267 23.51176148 -18.75 26.3125 C-21.0625 27.625 -21.0625 27.625 -22.75 28.3125 C-21.76 26.3325 -20.77 24.3525 -19.75 22.3125 C-21.07 22.6425 -22.39 22.9725 -23.75 23.3125 C-21.38707344 20.78661298 -20.08537489 19.42429163 -16.75 18.3125 C-15.6862158 16.08190602 -15.6862158 16.08190602 -14.875 13.4375 C-13.23101707 9.01380547 -12.09769178 7.3776536 -7.75 5.3125 C-7.13125 4.425625 -6.5125 3.53875 -5.875 2.625 C-3.75 0.3125 -3.75 0.3125 0 0 Z " fill="#E5B1B1" transform="translate(109.75,-0.3125)"/>
<path d="M0 0 C1.2065625 0.0309375 1.2065625 0.0309375 2.4375 0.0625 C2.14453125 2.11328125 1.8515625 4.1640625 1.55859375 6.21484375 C1.51863281 6.82457031 1.47867188 7.43429688 1.4375 8.0625 C3.40572886 10.03072886 6.78558709 9.72498381 9.4375 10.0625 C9.56125 8.928125 9.685 7.79375 9.8125 6.625 C10.01875 5.449375 10.225 4.27375 10.4375 3.0625 C11.0975 2.7325 11.7575 2.4025 12.4375 2.0625 C13.69976416 6.35419814 13.1670879 8.96610761 11.4375 13.0625 C9.4375 15.0625 9.4375 15.0625 5.625 15.5 C2.30102504 15.39101721 1.37849232 15.02439087 -1.5625 13.125 C-4.20352506 9.08093038 -4.24485945 5.78052819 -3.5625 1.0625 C-2.5625 0.0625 -2.5625 0.0625 0 0 Z " fill="#373368" transform="translate(184.5625,17.9375)"/>
<path d="M0 0 C3.63 0 7.26 0 11 0 C11 2.97 11 5.94 11 9 C12.32 9.33 13.64 9.66 15 10 C15.33 9.34 15.66 8.68 16 8 C18.42797311 8 20.62907005 8.50085685 23 9 C19.35883227 12.33773709 15.71392758 12.97864902 11 14 C10.67 15.32 10.34 16.64 10 18 C9.82984375 17.15695313 9.6596875 16.31390625 9.484375 15.4453125 C9.24203125 14.34960938 8.9996875 13.25390625 8.75 12.125 C8.51796875 11.03445313 8.2859375 9.94390625 8.046875 8.8203125 C7.27919623 5.9053241 7.27919623 5.9053241 5.015625 4.6796875 C4.01789063 4.34324219 4.01789063 4.34324219 3 4 C2.34 3.67 1.68 3.34 1 3 C0.67 4.32 0.34 5.64 0 7 C-1.125 2.25 -1.125 2.25 0 0 Z " fill="#FAB8B4" transform="translate(171,0)"/>
<path d="M0 0 C1.65 0 3.3 0 5 0 C4.67 0.99 4.34 1.98 4 3 C4.32441604 4.66842534 4.65939189 6.33480481 5 8 C5.04092937 10.33297433 5.04241723 12.66705225 5 15 C5 16.32 5 17.64 5 19 C5 19.99 5 20.98 5 22 C2.69 22 0.38 22 -2 22 C-1.67 23.65 -1.34 25.3 -1 27 C-4 28 -4 28 -6.625 27.375 C-9 26 -9 26 -9.8125 23.375 C-9.874375 22.59125 -9.93625 21.8075 -10 21 C-6.7 20.67 -3.4 20.34 0 20 C0 19.34 0 18.68 0 18 C0.66 18 1.32 18 2 18 C2 17.236875 2 16.47375 2 15.6875 C2 13.79166667 2 11.89583333 2 10 C1.49586863 6.61511794 0.88980392 3.30498599 0 0 Z " fill="#F3A8AB" transform="translate(219,48)"/>
<path d="M0 0 C0 1.32 0 2.64 0 4 C-0.99 4 -1.98 4 -3 4 C-3 5.32 -3 6.64 -3 8 C-2.34 8 -1.68 8 -1 8 C-1 12.29 -1 16.58 -1 21 C-1.66 20.34 -2.32 19.68 -3 19 C-3.66 19.33 -4.32 19.66 -5 20 C-4.94199219 19.26394531 -4.88398438 18.52789063 -4.82421875 17.76953125 C-4.48954518 11.44725221 -4.48954518 11.44725221 -7.0625 5.8125 C-10.71850384 3.55666784 -12.76958093 3.46158303 -17 4 C-19.35369807 4.88064927 -19.35369807 4.88064927 -21 6 C-21 5.01 -21 4.02 -21 3 C-17.80530684 0.87020456 -16.47588022 0.65600214 -12.75 0.375 C-11.77933594 0.30152344 -10.80867187 0.22804688 -9.80859375 0.15234375 C-6.52556338 -0.02573439 -3.28645394 -0.07303231 0 0 Z " fill="#DDB2C6" transform="translate(203,11)"/>
<path d="M0 0 C1.98 0 3.96 0 6 0 C6.33 3.3 6.66 6.6 7 10 C6.34 10 5.68 10 5 10 C5 7.03 5 4.06 5 1 C3.68 1 2.36 1 1 1 C1 9.58 1 18.16 1 27 C2.98 26.67 4.96 26.34 7 26 C8.546875 26.0309375 8.546875 26.0309375 10.125 26.0625 C13.05556202 25.99879213 14.53643755 25.51603843 17 24 C17 24.66 17 25.32 17 26 C17.99 26 18.98 26 20 26 C20.33 27.65 20.66 29.3 21 31 C20.34 31.33 19.68 31.66 19 32 C19 31.34 19 30.68 19 30 C13.46386294 28.57131947 7.44788588 28.18403804 2 30 C2 29.34 2 28.68 2 28 C1.01 28 0.02 28 -1 28 C-1.1598655 18.62122392 -0.66433182 9.34809779 0 0 Z " fill="#C38193" transform="translate(137,42)"/>
<path d="M0 0 C1.32 0 2.64 0 4 0 C4 2.31 4 4.62 4 7 C3.67 7 3.34 7 3 7 C3 5.35 3 3.7 3 2 C2.34 2 1.68 2 1 2 C1 8.93 1 15.86 1 23 C2.32 23 3.64 23 5 23 C5.33 22.34 5.66 21.68 6 21 C7.98 21 9.96 21 12 21 C12.33 18.36 12.66 15.72 13 13 C13.33 13 13.66 13 14 13 C14 15.64 14 18.28 14 21 C14.99 21.33 15.98 21.66 17 22 C15.25 24 15.25 24 12 26 C8.04 26 4.08 26 0 26 C0 17.42 0 8.84 0 0 Z " fill="#372A5A" transform="translate(138,43)"/>
<path d="M0 0 C0.66 0 1.32 0 2 0 C2 2.97 2 5.94 2 9 C3.134375 8.95875 4.26875 8.9175 5.4375 8.875 C10.14383562 8.85816159 14.46316004 9.82378223 19 11 C19 13.31 19 15.62 19 18 C18.34 17.67 17.68 17.34 17 17 C17 16.01 17 15.02 17 14 C15.2675 14.0928125 15.2675 14.0928125 13.5 14.1875 C8.10171141 14.20671099 3.80877618 12.40438809 -1 10 C-0.67 6.7 -0.34 3.4 0 0 Z " fill="#E19291" transform="translate(54,102)"/>
<path d="M0 0 C2.125 0.3125 2.125 0.3125 5 1 C7.5833433 0.77644144 10.1302634 0.43672409 12.6953125 0.05859375 C15 0 15 0 18 2 C17.236875 2.4125 16.47375 2.825 15.6875 3.25 C12.90217279 5.06370144 11.5115941 6.05636939 10 9 C9.75984408 11.72002684 9.86295372 14.25907443 10 17 C8.02 17.99 8.02 17.99 6 19 C6.10699219 18.32453125 6.21398437 17.6490625 6.32421875 16.953125 C6.44410156 16.06109375 6.56398437 15.1690625 6.6875 14.25 C6.81511719 13.36828125 6.94273437 12.4865625 7.07421875 11.578125 C6.98167028 8.36328353 6.29867489 7.21801963 4 5 C1.9683434 4.31149171 1.9683434 4.31149171 -0.1875 4.25 C-1.445625 4.1675 -2.70375 4.085 -4 4 C-2.3125 1.9375 -2.3125 1.9375 0 0 Z " fill="#DE93A6" transform="translate(148,47)"/>
<path d="M0 0 C0.99 0 1.98 0 3 0 C3.66 2.64 4.32 5.28 5 8 C1.44181064 10.26273207 -1.12547951 10.07331744 -5.25 9.625 C-6.32765625 9.51414062 -7.4053125 9.40328125 -8.515625 9.2890625 C-9.74539062 9.14597656 -9.74539062 9.14597656 -11 9 C-10.74609375 7.1015625 -10.74609375 7.1015625 -10 5 C-8.22265625 4.0234375 -8.22265625 4.0234375 -6.0625 3.375 C-3.24747904 2.50648174 -2.13620863 2.13620863 0 0 Z " fill="#F38486" transform="translate(183,71)"/>
<path d="M0 0 C1.22589844 0.01353516 1.22589844 0.01353516 2.4765625 0.02734375 C3.41628906 0.04474609 3.41628906 0.04474609 4.375 0.0625 C4.045 0.7225 3.715 1.3825 3.375 2.0625 C2.4675 2.35125 1.56 2.64 0.625 2.9375 C-2.85294309 4.14140338 -4.86257556 5.67337616 -7.625 8.0625 C-8.615 8.7225 -9.605 9.3825 -10.625 10.0625 C-11.615 9.7325 -12.605 9.4025 -13.625 9.0625 C-12.09505208 7.85807292 -10.56510417 6.65364583 -9.03515625 5.44921875 C-7.35344923 4.00566909 -7.35344923 4.00566909 -6.625 1.0625 C-4.21954362 -0.14022819 -2.67503047 -0.03821472 0 0 Z M-15.625 13.0625 C-17.99219116 14.88341628 -20.25379449 16.41317385 -22.875 17.875 C-25.9845914 19.82014373 -25.9845914 19.82014373 -26 23.3125 C-25.87625 24.22 -25.7525 25.1275 -25.625 26.0625 C-26.285 26.0625 -26.945 26.0625 -27.625 26.0625 C-27.97966184 22.98876406 -28.14215546 20.12321601 -27.625 17.0625 C-24.29683353 14.03689412 -20.05961837 10.84519081 -15.625 13.0625 Z " fill="#E4A6A7" transform="translate(67.625,21.9375)"/>
<path d="M0 0 C4.29 0 8.58 0 13 0 C13 4.62 13 9.24 13 14 C4.09 14 -4.82 14 -14 14 C-14 13.67 -14 13.34 -14 13 C-5.42 12.67 3.16 12.34 12 12 C12 9.03 12 6.06 12 3 C8.7 3.66 5.4 4.32 2 5 C1.34 3.35 0.68 1.7 0 0 Z " fill="#C5A5A5" transform="translate(148,154)"/>
<path d="M0 0 C0.33 0.66 0.66 1.32 1 2 C3.05175405 2.65151097 3.05175405 2.65151097 5.4375 3.0625 C9.832021 3.9160105 9.832021 3.9160105 12 5 C11.42655063 7.86724686 11.1385485 8.8614515 9 11 C6.8359375 11.1953125 6.8359375 11.1953125 4.375 11.125 C3.55773437 11.10695313 2.74046875 11.08890625 1.8984375 11.0703125 C1.27195312 11.04710937 0.64546875 11.02390625 0 11 C-0.38909985 9.54536519 -0.76088029 8.08608793 -1.125 6.625 C-1.33382813 5.81289062 -1.54265625 5.00078125 -1.7578125 4.1640625 C-1.83773438 3.44992187 -1.91765625 2.73578125 -2 2 C-1.34 1.34 -0.68 0.68 0 0 Z " fill="#7583AA" transform="translate(10,8)"/>
<path d="M0 0 C1.98 0.99 1.98 0.99 4 2 C3.34 2 2.68 2 2 2 C2.33 4.64 2.66 7.28 3 10 C10.92 10.33 18.84 10.66 27 11 C27 7.37 27 3.74 27 0 C27.33 0 27.66 0 28 0 C28 4.29 28 8.58 28 13 C18.98126173 13.09109837 9.96276635 13.15786934 1 12 C0 11 0 11 -0.09765625 8.49609375 C-0.08605469 7.48675781 -0.07445312 6.47742188 -0.0625 5.4375 C-0.05347656 4.42558594 -0.04445312 3.41367188 -0.03515625 2.37109375 C-0.02355469 1.58863281 -0.01195312 0.80617187 0 0 Z " fill="#D8C8C7" transform="translate(133,182)"/>
<path d="M0 0 C3.3 0 6.6 0 10 0 C10.11858127 11.38380184 9.86612792 22.64753762 9 34 C8.34 33.67 7.68 33.34 7 33 C7 23.1 7 13.2 7 3 C4.69 2.67 2.38 2.34 0 2 C0 1.34 0 0.68 0 0 Z " fill="#DBD6D4" transform="translate(121,149)"/>
<path d="M0 0 C0.99 0.33 1.98 0.66 3 1 C3 1.66 3 2.32 3 3 C3.33 3.66 3.66 4.32 4 5 C-1.445 4.505 -1.445 4.505 -7 4 C-7.33 2.68 -7.66 1.36 -8 0 C-9.65 -0.33 -11.3 -0.66 -13 -1 C-13 -0.34 -13 0.32 -13 1 C-13.70125 0.95875 -14.4025 0.9175 -15.125 0.875 C-18.38371628 1.01668332 -20.9559947 1.86734686 -24 3 C-24 2.34 -24 1.68 -24 1 C-23.34 1 -22.68 1 -22 1 C-22 0.34 -22 -0.32 -22 -1 C-15.69181745 -4.15409127 -6.49526104 -1.85385576 0 0 Z " fill="#E5C2C1" transform="translate(212,140)"/>
<path d="M0 0 C1.79133978 -0.05391993 3.58313899 -0.09275571 5.375 -0.125 C6.37273437 -0.14820312 7.37046875 -0.17140625 8.3984375 -0.1953125 C11 0 11 0 13 2 C12.625 4.125 12.625 4.125 12 6 C10.68 6 9.36 6 8 6 C7.67 7.32 7.34 8.64 7 10 C7 9.34 7 8.68 7 8 C6.21625 8.185625 5.4325 8.37125 4.625 8.5625 C2 9 2 9 0 8 C0.57584432 5.61435923 1.22227595 3.33317216 2 1 C1.34 0.67 0.68 0.34 0 0 Z " fill="#FA9493" transform="translate(142,70)"/>
<path d="M0 0 C0.33 0 0.66 0 1 0 C1.05394705 2.60444348 1.09364469 5.20776998 1.125 7.8125 C1.14175781 8.55048828 1.15851563 9.28847656 1.17578125 10.04882812 C1.21074628 13.91246426 1.19397555 15.70903668 -1 19 C-1 15.04 -1 11.08 -1 7 C-7.93 7 -14.86 7 -22 7 C-22 6.34 -22 5.68 -22 5 C-14.97381022 3.4943879 -8.10547081 4.35942357 -1 5 C-0.67 3.35 -0.34 1.7 0 0 Z " fill="#E56B6C" transform="translate(161,120)"/>
<path d="M0 0 C-0.350625 0.515625 -0.70125 1.03125 -1.0625 1.5625 C-2.3615641 4.94006667 -1.67217681 7.50468057 -1 11 C-2.32 11.33 -3.64 11.66 -5 12 C-4.67 10.35 -4.34 8.7 -4 7 C-6.64 6.67 -9.28 6.34 -12 6 C-11.67 4.02 -11.34 2.04 -11 0 C-6.98195309 -0.84098656 -3.98196457 -1.05404945 0 0 Z " fill="#F48483" transform="translate(209,38)"/>
<path d="M0 0 C0.33 0 0.66 0 1 0 C1.06058594 0.75925781 1.12117187 1.51851562 1.18359375 2.30078125 C1.26738281 3.29464844 1.35117188 4.28851563 1.4375 5.3125 C1.51871094 6.29863281 1.59992188 7.28476562 1.68359375 8.30078125 C1.91812559 11.09375599 1.91812559 11.09375599 3 14 C4.98 14 6.96 14 9 14 C9 12.68 9 11.36 9 10 C7.68 9.67 6.36 9.34 5 9 C5 6.03 5 3.06 5 0 C6.32 0.33 7.64 0.66 9 1 C8.34 1 7.68 1 7 1 C7 3.31 7 5.62 7 8 C8.32 8 9.64 8 11 8 C10.67 10.31 10.34 12.62 10 15 C7.36 15 4.72 15 2 15 C2 14.34 2 13.68 2 13 C0.02 13.33 -1.96 13.66 -4 14 C-3.67 10.7 -3.34 7.4 -3 4 C-2.67 4 -2.34 4 -2 4 C-1.67 5.98 -1.34 7.96 -1 10 C-0.67 6.7 -0.34 3.4 0 0 Z " fill="#C2859F" transform="translate(196,55)"/>
<path d="M0 0 C7.29411765 0.36470588 7.29411765 0.36470588 10.5 3.25 C12.09290174 6.17031986 12.37325636 7.73400687 12 11 C9.03 10.505 9.03 10.505 6 10 C6 9.34 6 8.68 6 8 C3.69 8 1.38 8 -1 8 C0.36983503 4.83884224 0.9890638 4.0072908 4 2 C2.68 1.34 1.36 0.68 0 0 Z " fill="#433B6D" transform="translate(163,50)"/>
<path d="M0 0 C2.5 0.25 2.5 0.25 4.5 2.25 C4.125 5.875 4.125 5.875 3.5 9.25 C1.52 9.58 -0.46 9.91 -2.5 10.25 C-4.64915785 7.02626323 -4.88286803 5.98296326 -4.5 2.25 C-2.5 0.25 -2.5 0.25 0 0 Z " fill="#C8829B" transform="translate(146.5,54.75)"/>
<path d="M0 0 C0.33 1.32 0.66 2.64 1 4 C1.66 4 2.32 4 3 4 C3.33 2.68 3.66 1.36 4 0 C5.65 0.33 7.3 0.66 9 1 C9 2.65 9 4.3 9 6 C7.02 6.33 5.04 6.66 3 7 C4.65 7.33 6.3 7.66 8 8 C8 8.33 8 8.66 8 9 C4.04 9 0.08 9 -4 9 C-3.67 7.35 -3.34 5.7 -3 4 C-2.01 4 -1.02 4 0 4 C0 2.68 0 1.36 0 0 Z " fill="#B593AC" transform="translate(211,6)"/>
<path d="M0 0 C0.061875 0.94875 0.12375 1.8975 0.1875 2.875 C0.64689246 6.12008734 0.64689246 6.12008734 3.125 7.3125 C6.40349241 8.09648732 9.65306687 8.60624316 13 9 C13 9.33 13 9.66 13 10 C4.07081668 10.45402627 4.07081668 10.45402627 0 7 C-0.8125 4.8125 -0.8125 4.8125 -1 3 C-2.65 3 -4.3 3 -6 3 C-6.33 4.32 -6.66 5.64 -7 7 C-10.375 7.625 -10.375 7.625 -14 8 C-14.66 7.34 -15.32 6.68 -16 6 C-14.35 5.67 -12.7 5.34 -11 5 C-10.67 4.01 -10.34 3.02 -10 2 C-6.3558226 -0.4294516 -4.28758728 -0.16179575 0 0 Z " fill="#E49EA0" transform="translate(118,137)"/>
<path d="M0 0 C0 0.99 0 1.98 0 3 C0.66 3 1.32 3 2 3 C2.33 5.31 2.66 7.62 3 10 C5.97 10.66 8.94 11.32 12 12 C12 12.33 12 12.66 12 13 C7.09905297 13.288291 3.78387857 13.33871638 0 10 C-0.8125 6.8125 -0.8125 6.8125 -1 4 C-5.05606165 4.46800711 -8.46588679 4.87953208 -12 7 C-10.1896099 1.56882971 -5.56166796 -0.65431388 0 0 Z " fill="#EC8486" transform="translate(119,133)"/>
<path d="M0 0 C0.33 0 0.66 0 1 0 C1.1964031 3.29119935 1.38060745 6.58296934 1.5625 9.875 C1.61857422 10.81214844 1.67464844 11.74929687 1.73242188 12.71484375 C1.78076172 13.61074219 1.82910156 14.50664062 1.87890625 15.4296875 C1.9260376 16.25710449 1.97316895 17.08452148 2.02172852 17.93701172 C2 20 2 20 1 22 C-0.32 22 -1.64 22 -3 22 C-3 21.34 -3 20.68 -3 20 C-3.639375 19.896875 -4.27875 19.79375 -4.9375 19.6875 C-5.618125 19.460625 -6.29875 19.23375 -7 19 C-7.33 18.01 -7.66 17.02 -8 16 C-8.66 16 -9.32 16 -10 16 C-10 15.34 -10 14.68 -10 14 C-8.68 14.33 -7.36 14.66 -6 15 C-5.67 11.37 -5.34 7.74 -5 4 C-4.67 4 -4.34 4 -4 4 C-4 8.29 -4 12.58 -4 17 C-2.68 17 -1.36 17 0 17 C0 11.39 0 5.78 0 0 Z " fill="#C693A4" transform="translate(219,15)"/>
<path d="M0 0 C2.5 0.25 2.5 0.25 4.5 2.25 C4.6875 5.3125 4.6875 5.3125 4.5 8.25 C3.5 9.25 3.5 9.25 0.5625 9.4375 C-2.5 9.25 -2.5 9.25 -4.5 7.25 C-4.75 4.75 -4.75 4.75 -4.5 2.25 C-2.5 0.25 -2.5 0.25 0 0 Z " fill="#D4AEC2" transform="translate(189.5,18.75)"/>
<path d="M0 0 C2.24993359 -0.02707139 4.49996095 -0.04642829 6.75 -0.0625 C8.00296875 -0.07410156 9.2559375 -0.08570312 10.546875 -0.09765625 C13.28536501 -0.02021027 15.41880293 0.17219185 18 1 C18 2.65 18 4.3 18 6 C17.01 6 16.02 6 15 6 C15 4.68 15 3.36 15 2 C11.37 2 7.74 2 4 2 C4.33 2.99 4.66 3.98 5 5 C4.01 5.33 3.02 5.66 2 6 C2 6.66 2 7.32 2 8 C1.01 8.33 0.02 8.66 -1 9 C-1.66 9.99 -2.32 10.98 -3 12 C-2.47731534 9.23723823 -1.89130413 6.6739124 -1 4 C-0.65772583 2.66893378 -0.32248257 1.33599921 0 0 Z " fill="#F59693" transform="translate(174,68)"/>
<path d="M0 0 C1.98 0 3.96 0 6 0 C6 4.29 6 8.58 6 13 C5.67 12.34 5.34 11.68 5 11 C2.97536745 10.34786708 2.97536745 10.34786708 1 10 C0.67 10.99 0.34 11.98 0 13 C0 8.71 0 4.42 0 0 Z " fill="#EEB4BD" transform="translate(208,19)"/>
<path d="M0 0 C0.66 0.33 1.32 0.66 2 1 C-3.12770449 5.87757256 -3.12770449 5.87757256 -7.5625 6.5 C-11.16997985 6.66298892 -11.16997985 6.66298892 -13.375 9.5 C-16.98515656 12.93824434 -20.16841583 12.8842104 -25 13 C-24.67 12.01 -24.34 11.02 -24 10 C-22.39125 9.9071875 -22.39125 9.9071875 -20.75 9.8125 C-16.87654562 9.39384632 -16.87654562 9.39384632 -15.0625 6.5 C-13 4 -13 4 -9.0625 3.375 C-8.37027344 3.33375 -7.67804688 3.2925 -6.96484375 3.25 C-4.20160741 2.89841526 -2.30594486 1.49208197 0 0 Z " fill="#EB9D9B" transform="translate(189,136)"/>
<path d="M0 0 C0.66 0.33 1.32 0.66 2 1 C0.76302083 2.46484375 -0.47395833 3.9296875 -1.7109375 5.39453125 C-4.6427106 9.04592138 -5.36859164 11.5412241 -5.9375 16.125 C-6.72443762 21.74688238 -8.01975726 26.68934902 -10 32 C-10.66 31.67 -11.32 31.34 -12 31 C-11.58926544 28.05640232 -11.17524501 25.4168178 -10.01953125 22.66796875 C-8.55781992 18.8428774 -8.19136226 14.98085446 -7.66015625 10.9375 C-6.52502926 5.88652074 -4.29983834 2.81713546 0 0 Z " fill="#D3BDBC" transform="translate(29,53)"/>
<path d="M0 0 C0.33 0 0.66 0 1 0 C1 4.62 1 9.24 1 14 C3.64 13.34 6.28 12.68 9 12 C9.99 13.485 9.99 13.485 11 15 C11.99 15.33 12.98 15.66 14 16 C14 16.66 14 17.32 14 18 C14.99 18.33 15.98 18.66 17 19 C16.34 19 15.68 19 15 19 C14.67 19.99 14.34 20.98 14 22 C13.360625 21.38125 12.72125 20.7625 12.0625 20.125 C8.06251578 17.34950075 4.77328151 16.85491609 0 16 C0 10.72 0 5.44 0 0 Z " fill="#E49FA5" transform="translate(202,19)"/>
<path d="M0 0 C0.33 0 0.66 0 1 0 C1 1.65 1 3.3 1 5 C1.99 4.67 2.98 4.34 4 4 C4.33 6.31 4.66 8.62 5 11 C4.34 11 3.68 11 3 11 C2.34 16.94 1.68 22.88 1 29 C1.66 29.33 2.32 29.66 3 30 C2.01 30 1.02 30 0 30 C0 20.1 0 10.2 0 0 Z " fill="#E4CDCC" transform="translate(163,148)"/>
<path d="M0 0 C2.1640625 0.2421875 2.1640625 0.2421875 4.625 0.875 C5.44226563 1.07867187 6.25953125 1.28234375 7.1015625 1.4921875 C8.04128906 1.74355469 8.04128906 1.74355469 9 2 C9 3.65 9 5.3 9 7 C2.375 8 2.375 8 -1 8 C-2 7 -2 7 -2.1875 4.5625 C-2 2 -2 2 0 0 Z " fill="#4A366A" transform="translate(178,59)"/>
<path d="M0 0 C1.32 0 2.64 0 4 0 C4.12375 1.3921875 4.12375 1.3921875 4.25 2.8125 C4.70257552 6.08509879 4.70257552 6.08509879 7.0625 7.875 C7.701875 8.24625 8.34125 8.6175 9 9 C7.68 9.33 6.36 9.66 5 10 C4.66097656 9.36320312 4.32195312 8.72640625 3.97265625 8.0703125 C1.18528875 5.14495651 -1.72562461 5.17265731 -5.5625 4.875 C-12.76160991 4.23839009 -12.76160991 4.23839009 -15 2 C-14.08476562 2.02320312 -13.16953125 2.04640625 -12.2265625 2.0703125 C-10.44378906 2.09738281 -10.44378906 2.09738281 -8.625 2.125 C-6.84996094 2.15980469 -6.84996094 2.15980469 -5.0390625 2.1953125 C-1.88846183 2.32866229 -1.88846183 2.32866229 0 0 Z " fill="#F99494" transform="translate(188,78)"/>
<path d="M0 0 C1.32 0.33 2.64 0.66 4 1 C3.525625 1.350625 3.05125 1.70125 2.5625 2.0625 C0.69052762 4.02824939 0.69052762 4.02824939 0.625 7.375 C-0.14491806 11.84052473 -1.534869 13.17954453 -5 16 C-7.3125 17.3125 -7.3125 17.3125 -9 18 C-8.01 16.02 -7.02 14.04 -6 12 C-7.32 12.33 -8.64 12.66 -10 13 C-7.63707344 10.47411298 -6.33537489 9.11179163 -3 8 C-1.98245132 6.1346755 -1.98245132 6.1346755 -1.3125 3.9375 C-1.06113281 3.20402344 -0.80976562 2.47054688 -0.55078125 1.71484375 C-0.36902344 1.14894531 -0.18726562 0.58304688 0 0 Z " fill="#E8A5A6" transform="translate(96,10)"/>
<path d="M0 0 C0.33 0 0.66 0 1 0 C1.33 4.62 1.66 9.24 2 14 C-2.29 14 -6.58 14 -11 14 C-10.67 13.01 -10.34 12.02 -10 11 C-7.69 11 -5.38 11 -3 11 C-2.01 7.37 -1.02 3.74 0 0 Z " fill="#242863" transform="translate(190,55)"/>
<path d="M0 0 C1.794375 0.309375 1.794375 0.309375 3.625 0.625 C6.43737541 0.26525105 6.43737541 0.26525105 8.625 -0.375 C8.3125 1.5 8.3125 1.5 7.625 3.625 C3.84864747 6.14256835 1.06134442 6.26272451 -3.375 5.625 C-5.375 4.125 -5.375 4.125 -6.375 2.625 C-4.35174886 -0.35036932 -3.67721884 -0.40857987 0 0 Z " fill="#3D3059" transform="translate(165.375,63.375)"/>
<path d="M0 0 C0.66 0 1.32 0 2 0 C2.02578125 0.60328125 2.0515625 1.2065625 2.078125 1.828125 C2.43375828 6.96300302 2.43375828 6.96300302 4.6875 11.5 C7.46529653 13.30181397 9.7266502 13.70242275 13 14 C13 14.33 13 14.66 13 15 C8.545 15.495 8.545 15.495 4 16 C4 15.34 4 14.68 4 14 C3.360625 13.690625 2.72125 13.38125 2.0625 13.0625 C-0 12 -0 12 -1 11 C-1.09823937 9.33570949 -1.12973631 7.66718069 -1.125 6 C-1.12757812 5.0925 -1.13015625 4.185 -1.1328125 3.25 C-1 1 -1 1 0 0 Z " fill="#CFDCEE" transform="translate(5,10)"/>
<path d="M0 0 C0.33 0 0.66 0 1 0 C2.28571429 7.42857143 2.28571429 7.42857143 1 11 C2.65 10.34 4.3 9.68 6 9 C6 9.99 6 10.98 6 12 C6.43570313 11.55527344 6.87140625 11.11054688 7.3203125 10.65234375 C9.14918199 8.91452188 10.8815854 7.37422105 13 6 C16.4375 6.125 16.4375 6.125 19 7 C19 7.33 19 7.66 19 8 C17.39125 8.0928125 17.39125 8.0928125 15.75 8.1875 C11.87800021 8.61362317 11.87800021 8.61362317 10 11.5 C8 14 8 14 4.3125 14.875 C3.219375 14.91625 2.12625 14.9575 1 15 C0 14 0 14 -0.09765625 10.83984375 C-0.08025391 8.90818359 -0.08025391 8.90818359 -0.0625 6.9375 C-0.05347656 5.64714844 -0.04445312 4.35679687 -0.03515625 3.02734375 C-0.02355469 2.02832031 -0.01195312 1.02929688 0 0 Z " fill="#EF8C8D" transform="translate(164,132)"/>
<path d="M0 0 C1.32 0 2.64 0 4 0 C4 1.98 4 3.96 4 6 C5.32 6 6.64 6 8 6 C8 7.32 8 8.64 8 10 C6.35 10 4.7 10 3 10 C2.67 8.68 2.34 7.36 2 6 C1.01 6.495 1.01 6.495 0 7 C0 7.99 0 8.98 0 10 C-0.99 10 -1.98 10 -3 10 C-3 8.68 -3 7.36 -3 6 C-2.34 5.67 -1.68 5.34 -1 5 C-0.34444881 2.47266765 -0.34444881 2.47266765 0 0 Z " fill="#3D325E" transform="translate(197,45)"/>
<path d="M0 0 C1.32 0.33 2.64 0.66 4 1 C4 4.63 4 8.26 4 12 C3.34 12 2.68 12 2 12 C1.67 11.34 1.34 10.68 1 10 C1 11.65 1 13.3 1 15 C0.01 14.67 -0.98 14.34 -2 14 C-2 11.69 -2 9.38 -2 7 C-1.34 6.67 -0.68 6.34 0 6 C0 4.02 0 2.04 0 0 Z " fill="#F88B85" transform="translate(132,57)"/>
<path d="M0 0 C0.66 0.99 1.32 1.98 2 3 C1.01 4.485 1.01 4.485 0 6 C-0.33 6 -0.66 6 -1 6 C-0.97679687 6.83144531 -0.95359375 7.66289062 -0.9296875 8.51953125 C-0.90261719 10.14955078 -0.90261719 10.14955078 -0.875 11.8125 C-0.85179687 12.89144531 -0.82859375 13.97039063 -0.8046875 15.08203125 C-1 18 -1 18 -3 21 C-3.33 15.39 -3.66 9.78 -4 4 C-6.31 3.67 -8.62 3.34 -11 3 C-8.60236815 0.60236815 -7.66726502 0.65719414 -4.375 0.375 C-3.55773437 0.30023438 -2.74046875 0.22546875 -1.8984375 0.1484375 C-1.27195313 0.09945313 -0.64546875 0.05046875 0 0 Z " fill="#F3C2C9" transform="translate(223,11)"/>
<path d="M0 0 C0.33 0 0.66 0 1 0 C1.04898438 1.14339844 1.09796875 2.28679687 1.1484375 3.46484375 C1.22345189 4.95575473 1.29900028 6.44663892 1.375 7.9375 C1.4059375 8.69224609 1.436875 9.44699219 1.46875 10.22460938 C1.5726315 12.15507395 1.77895614 14.07942081 2 16 C4.49292844 17.24646422 6.09134689 17.06454848 8.875 17 C14.96192974 16.93550273 20.94577986 17.40831356 27 18 C27 18.33 27 18.66 27 19 C18.42 19 9.84 19 1 19 C0.67 19.66 0.34 20.32 0 21 C0 14.07 0 7.14 0 0 Z " fill="#F0A6A5" transform="translate(133,133)"/>
<path d="M0 0 C2.16050197 0.23505461 4.31911413 0.47625676 6.4765625 0.73828125 C8.95419856 1.03110545 8.95419856 1.03110545 11.2734375 1.04296875 C13.375 1.125 13.375 1.125 17 2 C18.8125 5.4375 18.8125 5.4375 20 9 C22.91765 10.9451 24.62537285 11.45276317 28 12 C28 12.33 28 12.66 28 13 C25.36 13.33 22.72 13.66 20 14 C17 8.25 17 8.25 17 6 C16.34 6 15.68 6 15 6 C15 5.34 15 4.68 15 4 C14.00097656 3.87882812 13.00195312 3.75765625 11.97265625 3.6328125 C10.68230469 3.46523437 9.39195313 3.29765625 8.0625 3.125 C6.77472656 2.96257812 5.48695312 2.80015625 4.16015625 2.6328125 C3.11730469 2.42398438 2.07445312 2.21515625 1 2 C0.67 1.34 0.34 0.68 0 0 Z " fill="#DBA5A5" transform="translate(54,114)"/>
<path d="M0 0 C2 2 2 2 2 5 C-0.01822917 4.67447917 -2.03645833 4.34895833 -4.0546875 4.0234375 C-4.69664062 4.01570313 -5.33859375 4.00796875 -6 4 C-6.66 4.66 -7.32 5.32 -8 6 C-8.99 5.34 -9.98 4.68 -11 4 C-8.39347803 -1.77158435 -6.01224405 -1.18097651 0 0 Z " fill="#4A396A" transform="translate(218,51)"/>
<path d="M0 0 C0 0.99 0 1.98 0 3 C2.64 3 5.28 3 8 3 C8 3.99 8 4.98 8 6 C6.824375 5.979375 5.64875 5.95875 4.4375 5.9375 C0.52586533 5.93052739 -3.14497944 6.35749657 -7 7 C-7.33 6.34 -7.66 5.68 -8 5 C-3.375 0 -3.375 0 0 0 Z " fill="#FA9D98" transform="translate(181,45)"/>
<path d="M0 0 C1.670625 0.061875 1.670625 0.061875 3.375 0.125 C3.705 0.785 4.035 1.445 4.375 2.125 C3.59125 2.310625 2.8075 2.49625 2 2.6875 C-1.01876342 3.96461627 -1.01876342 3.96461627 -1.9375 7.75 C-2.164375 8.86375 -2.39125 9.9775 -2.625 11.125 C-3.945 10.465 -5.265 9.805 -6.625 9.125 C-5.63269231 0.19423077 -5.63269231 0.19423077 0 0 Z " fill="#CBB3B2" transform="translate(24.625,93.875)"/>
<path d="M0 0 C1.32 0.66 2.64 1.32 4 2 C4 3.32 4 4.64 4 6 C3.278125 6.2475 2.55625 6.495 1.8125 6.75 C-1.24713266 8.10983674 -3.4673738 9.82917754 -6 12 C-6.375 9.9375 -6.375 9.9375 -6 7 C-4.20822891 4.46427718 -2.15761879 2.22825512 0 0 Z " fill="#E39292" transform="translate(38,67)"/>
<path d="M0 0 C2 1 2 1 2.73828125 3.14453125 C2.92777344 4.02496094 3.11726562 4.90539063 3.3125 5.8125 C3.61607422 7.12154297 3.61607422 7.12154297 3.92578125 8.45703125 C4.018493 11.63362864 3.11000955 12.70836937 1 15 C1 14.071875 1 13.14375 1 12.1875 C0.37579279 8.93907386 0.37579279 8.93907386 -1.84765625 7.93359375 C-3.88326804 7.19043389 -5.90300196 6.54455074 -8 6 C-7.67 5.01 -7.34 4.02 -7 3 C-3 4 -3 4 1 5 C0.67 3.35 0.34 1.7 0 0 Z " fill="#DB9CA7" transform="translate(219,51)"/>
<path d="M0 0 C0.66 0 1.32 0 2 0 C2.61082498 6.03189663 3 11.93383473 3 18 C3.33 18.99 3.66 19.98 4 21 C2.68 21 1.36 21 0 21 C0 14.07 0 7.14 0 0 Z " fill="#1C2F76" transform="translate(139,45)"/>
<path d="M0 0 C-0.3125 1.875 -0.3125 1.875 -1 4 C-4.28491373 6.18994248 -5.83095639 6.35277339 -9.6875 6.625 C-11.17830078 6.73714844 -11.17830078 6.73714844 -12.69921875 6.8515625 C-13.45847656 6.90054688 -14.21773438 6.94953125 -15 7 C-15.66 5.68 -16.32 4.36 -17 3 C-16.11248047 3.05220703 -16.11248047 3.05220703 -15.20703125 3.10546875 C-9.2475065 3.30962865 -5.34485165 0 0 0 Z " fill="#D7C5C5" transform="translate(115,142)"/>
<path d="M0 0 C2.125 0.125 2.125 0.125 4 1 C4.33 1.99 4.66 2.98 5 4 C4.28972656 4.13277344 3.57945312 4.26554687 2.84765625 4.40234375 C1.92855469 4.57894531 1.00945312 4.75554688 0.0625 4.9375 C-0.85402344 5.11152344 -1.77054688 5.28554688 -2.71484375 5.46484375 C-4.95289844 5.77714988 -4.95289844 5.77714988 -6 7 C-6.23287008 8.68183948 -6.41264166 10.3712416 -6.5625 12.0625 C-6.68818359 13.44115234 -6.68818359 13.44115234 -6.81640625 14.84765625 C-6.87699219 15.55792969 -6.93757812 16.26820312 -7 17 C-10.0234375 13.2421875 -10.0234375 13.2421875 -9.8125 11.0625 C-9.544375 10.381875 -9.27625 9.70125 -9 9 C-8.731875 8.113125 -8.46375 7.22625 -8.1875 6.3125 C-7 4 -7 4 -5.0625 3.375 C-4.0415625 3.189375 -4.0415625 3.189375 -3 3 C-2.505 2.46375 -2.01 1.9275 -1.5 1.375 C-1.005 0.92125 -0.51 0.4675 0 0 Z " fill="#F59293" transform="translate(138,38)"/>
<path d="M0 0 C1.65 0 3.3 0 5 0 C5.33 0.99 5.66 1.98 6 3 C4.35 3 2.7 3 1 3 C1 11.58 1 20.16 1 29 C0.67 29 0.34 29 0 29 C-0.06058594 27.9378125 -0.12117187 26.875625 -0.18359375 25.78125 C-0.26777957 24.35414007 -0.35244562 22.92705842 -0.4375 21.5 C-0.48044189 20.76547607 -0.52338379 20.03095215 -0.56762695 19.27416992 C-0.79488849 15.58434346 -1.09405377 11.96502024 -1.6875 8.3125 C-2.01505189 4.84044994 -1.62041796 3.05019851 0 0 Z " fill="#E6B3C3" transform="translate(172,3)"/>
<path d="M0 0 C0.33 0 0.66 0 1 0 C1.33 5.28 1.66 10.56 2 16 C3.65 16.33 5.3 16.66 7 17 C6.34 19.31 5.68 21.62 5 24 C1.9921875 22.640625 1.9921875 22.640625 -1 20 C-1.63063455 16.53534597 -1.24584166 13.23395983 -0.875 9.75 C-0.80023438 8.81414063 -0.72546875 7.87828125 -0.6484375 6.9140625 C-0.45998382 4.60550493 -0.24302519 2.30334582 0 0 Z " fill="#F3A8AB" transform="translate(171,16)"/>
<path d="M0 0 C0.99 0.495 0.99 0.495 2 1 C2 2.98 2 4.96 2 7 C7.94 7.33 13.88 7.66 20 8 C20 8.66 20 9.32 20 10 C17.22890693 10.05392397 14.45886182 10.09363455 11.6875 10.125 C10.90181641 10.14175781 10.11613281 10.15851563 9.30664062 10.17578125 C8.54931641 10.18222656 7.79199219 10.18867188 7.01171875 10.1953125 C5.96697388 10.21102295 5.96697388 10.21102295 4.90112305 10.22705078 C3 10 3 10 0 8 C-0.40843923 5.28796348 -0.13336867 2.7562858 0 0 Z " fill="#E89491" transform="translate(134,141)"/>
<path d="M0 0 C2 1.375 2 1.375 4 3 C4 3.66 4 4.32 4 5 C7.63 5.33 11.26 5.66 15 6 C15 6.66 15 7.32 15 8 C15.33 8.66 15.66 9.32 16 10 C13.03 9.67 10.06 9.34 7 9 C7 8.34 7 7.68 7 7 C3.62902617 5.50178941 1.79557881 5 -2 5 C-2 4.34 -2 3.68 -2 3 C-1.34 3 -0.68 3 0 3 C0 2.01 0 1.02 0 0 Z " fill="#EDA5B4" transform="translate(156,63)"/>
<path d="M0 0 C0.66 0.66 1.32 1.32 2 2 C0.68 2.33 -0.64 2.66 -2 3 C-1.67 3.66 -1.34 4.32 -1 5 C-2.65 5 -4.3 5 -6 5 C-6 5.66 -6 6.32 -6 7 C-7.32 7 -8.64 7 -10 7 C-9.6875 4.625 -9.6875 4.625 -9 2 C-5.54754176 -0.30163882 -4.05261287 -0.34490322 0 0 Z " fill="#604A75" transform="translate(187,50)"/>
<path d="M0 0 C4.06332098 8.12664195 4.37350574 14.25454422 2 23 C1.34 22.67 0.68 22.34 0 22 C0 14.74 0 7.48 0 0 Z " fill="#E6ABC0" transform="translate(178,6)"/>
<path d="M0 0 C0.99 0 1.98 0 3 0 C3.33 1.65 3.66 3.3 4 5 C2.54293274 5.50367757 1.08429904 6.00282556 -0.375 6.5 C-1.59316406 6.91765625 -1.59316406 6.91765625 -2.8359375 7.34375 C-5 8 -5 8 -7 8 C-7 6.68 -7 5.36 -7 4 C-5.824375 3.566875 -5.824375 3.566875 -4.625 3.125 C-1.90328368 2.15087746 -1.90328368 2.15087746 0 0 Z " fill="#F57E7A" transform="translate(183,71)"/>
<path d="M0 0 C3.875 0.875 3.875 0.875 5.875 2.875 C5.875 4.195 5.875 5.515 5.875 6.875 C1 6 1 6 -0.125 4.875 C-1.47247084 4.64424918 -2.82877565 4.46346937 -4.1875 4.3125 C-5.486875 4.168125 -6.78625 4.02375 -8.125 3.875 C-5.64841394 0.46969417 -4.09954275 -0.45467656 0 0 Z " fill="#CE7D90" transform="translate(152.125,47.125)"/>
<path d="M0 0 C0.66 0 1.32 0 2 0 C2 0.66 2 1.32 2 2 C2.99 1.67 3.98 1.34 5 1 C5.99 1.33 6.98 1.66 8 2 C8.33 1.34 8.66 0.68 9 0 C9.99 0 10.98 0 12 0 C12.625 1.875 12.625 1.875 13 4 C11 6 11 6 8.125 6.25 C5.09249453 6.00739956 3.429023 5.79927629 1 4 C0.25 1.875 0.25 1.875 0 0 Z " fill="#F7A5A4" transform="translate(161,70)"/>
<path d="M0 0 C1.79133978 -0.05391993 3.58313899 -0.09275571 5.375 -0.125 C6.37273437 -0.14820313 7.37046875 -0.17140625 8.3984375 -0.1953125 C11 0 11 0 13 2 C13 2.99 13 3.98 13 5 C11.6078125 4.7215625 11.6078125 4.7215625 10.1875 4.4375 C6.98656229 3.75876119 6.98656229 3.75876119 4 5 C4 4.34 4 3.68 4 3 C2.68 2.67 1.36 2.34 0 2 C0 1.34 0 0.68 0 0 Z " fill="#F89999" transform="translate(131,16)"/>
<path d="M0 0 C0.66 0 1.32 0 2 0 C1.34 4.95 0.68 9.9 0 15 C-1.65 14.67 -3.3 14.34 -5 14 C-4.34 11.36 -3.68 8.72 -3 6 C-2.34 6 -1.68 6 -1 6 C-0.67 4.02 -0.34 2.04 0 0 Z " fill="#F27375" transform="translate(131,130)"/>
<path d="M0 0 C2 1.625 2 1.625 4 4 C4.31452272 7.14522722 4.42041821 9.15916359 3 12 C2.01 12 1.02 12 0 12 C-0.12375 10.88625 -0.2475 9.7725 -0.375 8.625 C-0.6465813 4.96896323 -0.6465813 4.96896323 -3 3 C-2.01 3 -1.02 3 0 3 C0 2.01 0 1.02 0 0 Z " fill="#33326A" transform="translate(152,52)"/>
<path d="M0 0 C2.97 0 5.94 0 9 0 C7.93197254 4.27210984 7.56121574 4.84168743 4 7 C3.34 7 2.68 7 2 7 C2 6.01 2 5.02 2 4 C1.34 3.67 0.68 3.34 0 3 C0 2.01 0 1.02 0 0 Z " fill="#DDCCCB" transform="translate(94,0)"/>
<path d="M0 0 C2.31 0 4.62 0 7 0 C6.67 1.65 6.34 3.3 6 5 C1.25 6.125 1.25 6.125 -1 5 C-0.67 3.35 -0.34 1.7 0 0 Z " fill="#F77675" transform="translate(153,127)"/>
<path d="M0 0 C0.9075 0.0825 1.815 0.165 2.75 0.25 C1.08784732 1.58895632 -0.57963607 2.92130142 -2.25 4.25 C-2.8584375 4.7965625 -3.466875 5.343125 -4.09375 5.90625 C-6.86410278 7.63270173 -8.30945275 7.39928973 -11.5 6.9375 C-12.83804688 6.75767578 -12.83804688 6.75767578 -14.203125 6.57421875 C-15.21632813 6.41373047 -15.21632813 6.41373047 -16.25 6.25 C-12.5625 4.234375 -12.5625 4.234375 -9.75 4.375 C-7.0767586 4.5264647 -7.0767586 4.5264647 -5.3125 2.25 C-3.25 0.25 -3.25 0.25 0 0 Z " fill="#D0C4C4" transform="translate(80.25,127.75)"/>
<path d="M0 0 C0 0.33 0 0.66 0 1 C-1.65 1 -3.3 1 -5 1 C-5 1.99 -5 2.98 -5 4 C-6.98 4 -8.96 4 -11 4 C-11 3.34 -11 2.68 -11 2 C-12.32 1.67 -13.64 1.34 -15 1 C-14.13375 0.814375 -14.13375 0.814375 -13.25 0.625 C-10.97758047 0.11663305 -10.97758047 0.11663305 -9.1875 -1.1875 C-5.79936924 -2.44594857 -3.30878128 -1.14534737 0 0 Z " fill="#F38F8F" transform="translate(203,132)"/>
<path d="M0 0 C2.0625 0.4375 2.0625 0.4375 4 1 C3.38125 1.556875 2.7625 2.11375 2.125 2.6875 C-0.06106379 5.06645178 -0.98785699 6.96357096 -2 10 C-7.53846154 10.36923077 -7.53846154 10.36923077 -9.875 8.5 C-10.24625 8.005 -10.6175 7.51 -11 7 C-10.05125 7.020625 -9.1025 7.04125 -8.125 7.0625 C-5.09333717 7.22551826 -5.09333717 7.22551826 -3 6 C-2.29788106 4.34795544 -1.63028587 2.68076231 -1 1 C-0.67 0.67 -0.34 0.34 0 0 Z " fill="#E39293" transform="translate(84,115)"/>
<path d="M0 0 C0.66 0 1.32 0 2 0 C2 2.97 2 5.94 2 9 C3.918125 8.938125 3.918125 8.938125 5.875 8.875 C8.0546875 8.8046875 8.0546875 8.8046875 10 9 C10.66 9.66 11.32 10.32 12 11 C7.71 10.67 3.42 10.34 -1 10 C-0.67 6.7 -0.34 3.4 0 0 Z " fill="#E37F7C" transform="translate(54,102)"/>
<path d="M0 0 C1.17487036 0.75827092 2.33972592 1.53207755 3.5 2.3125 C4.47453125 2.95638672 4.47453125 2.95638672 5.46875 3.61328125 C5.9740625 4.07089844 6.479375 4.52851562 7 5 C7 5.99 7 6.98 7 8 C5.35 8.33 3.7 8.66 2 9 C2 9.66 2 10.32 2 11 C1.01 10.67 0.02 10.34 -1 10 C-0.34 9.01 0.32 8.02 1 7 C0.66179847 4.98045559 0.66179847 4.98045559 0 3 C0 2.01 0 1.02 0 0 Z " fill="#F7A19F" transform="translate(179,29)"/>
<path d="M0 0 C2.64 0.33 5.28 0.66 8 1 C8 2.33333333 8 3.66666667 8 5 C5.03 5 2.06 5 -1 5 C-0.67 3.35 -0.34 1.7 0 0 Z " fill="#8798BB" transform="translate(11,14)"/>
<path d="M0 0 C0 2.64 0 5.28 0 8 C-1.9375 7.625 -1.9375 7.625 -4 7 C-4.33 6.34 -4.66 5.68 -5 5 C-7.01669827 3.86649466 -7.01669827 3.86649466 -9 3 C-6.31795079 0.31795079 -3.73391546 0 0 0 Z " fill="#DBC8C7" transform="translate(160,157)"/>
<path d="M0 0 C0.33 0.66 0.66 1.32 1 2 C1.99 2 2.98 2 4 2 C4 5.63 4 9.26 4 13 C3.34 12.67 2.68 12.34 2 12 C1.34 12.66 0.68 13.32 0 14 C0 9.38 0 4.76 0 0 Z " fill="#ECA5B1" transform="translate(192,53)"/>
<path d="M0 0 C0.9075 0.103125 1.815 0.20625 2.75 0.3125 C2.75 1.3025 2.75 2.2925 2.75 3.3125 C-0.26031744 4.24673645 -1.11650268 4.35699911 -4.25 3.3125 C-4.58 5.9525 -4.91 8.5925 -5.25 11.3125 C-5.91 11.3125 -6.57 11.3125 -7.25 11.3125 C-7.5934538 7.62037163 -7.471621 5.70459869 -5.625 2.4375 C-3.25 0.3125 -3.25 0.3125 0 0 Z " fill="#3D366C" transform="translate(164.25,50.6875)"/>
<path d="M0 0 C0.33 0.99 0.66 1.98 1 3 C1.99 3 2.98 3 4 3 C3.67 5.64 3.34 8.28 3 11 C1 8 1 8 1 5 C-0.32 5 -1.64 5 -3 5 C-3.33 3.68 -3.66 2.36 -4 1 C-2.68 0.67 -1.36 0.34 0 0 Z " fill="#DCACAB" transform="translate(96,133)"/>
<path d="M0 0 C2 2 2 2 2.046875 3.875 C1.94890625 4.57625 1.8509375 5.2775 1.75 6 C1.61851562 7.051875 1.61851562 7.051875 1.484375 8.125 C1 10 1 10 -1 12 C-3.625 12.125 -3.625 12.125 -6 12 C-5.01 11.67 -4.02 11.34 -3 11 C-4.32 10.34 -5.64 9.68 -7 9 C-5.35 8.67 -3.7 8.34 -2 8 C-1.855625 6.865625 -1.71125 5.73125 -1.5625 4.5625 C-1 1 -1 1 0 0 Z " fill="#272D69" transform="translate(196,20)"/>
<path d="M0 0 C0.99 0 1.98 0 3 0 C3 4.29 3 8.58 3 13 C2.34 12.34 1.68 11.68 1 11 C0.01 11.495 0.01 11.495 -1 12 C-0.67 8.04 -0.34 4.08 0 0 Z " fill="#EFB8C1" transform="translate(199,19)"/>
<path d="M0 0 C0.33 0.99 0.66 1.98 1 3 C1.66 3 2.32 3 3 3 C3 3.66 3 4.32 3 5 C3.66 5 4.32 5 5 5 C4.38722388 7.96175123 3.74627478 9.38058783 2 12 C1.34 12 0.68 12 0 12 C0 8.04 0 4.08 0 0 Z " fill="#F67F82" transform="translate(170,132)"/>
<path d="M0 0 C0.66 0 1.32 0 2 0 C2.22889658 3.03287974 2.35597375 5.97422314 2 9 C0.125 10.875 0.125 10.875 -2 12 C-2.66 12.99 -3.32 13.98 -4 15 C-4.1875 12.1875 -4.1875 12.1875 -4 9 C-3.02149805 7.97895449 -2.02019573 6.9793879 -1 6 C-0.2730774 2.89160979 -0.2730774 2.89160979 0 0 Z " fill="#F99795" transform="translate(174,93)"/>
<path d="M0 0 C0.66 0.33 1.32 0.66 2 1 C1.69381595 4.67420866 1.24228216 5.78135513 -1.5625 8.3125 C-2.366875 8.869375 -3.17125 9.42625 -4 10 C-5.32 9.34 -6.64 8.68 -8 8 C-7 6 -7 6 -4.5625 4.5625 C-1.7644028 3.10335955 -1.7644028 3.10335955 0 0 Z " fill="#F67D7C" transform="translate(93,78)"/>
<path d="M0 0 C0.99 0 1.98 0 3 0 C3.33 0.66 3.66 1.32 4 2 C6.52733235 2.65555119 6.52733235 2.65555119 9 3 C9 3.33 9 3.66 9 4 C8.071875 4.268125 7.14375 4.53625 6.1875 4.8125 C3.23759634 5.91148371 1.94384814 6.62418561 0 9 C-0.87890625 2.84765625 -0.87890625 2.84765625 -1 1 C-0.67 0.67 -0.34 0.34 0 0 Z " fill="#F17E82" transform="translate(195,68)"/>
<path d="M0 0 C4.29 0 8.58 0 13 0 C6.625 4.25 6.625 4.25 2 4 C1.34 2.68 0.68 1.36 0 0 Z " fill="#B68BAB" transform="translate(162,61)"/>
<path d="M0 0 C0.33 0 0.66 0 1 0 C1.33 3.3 1.66 6.6 2 10 C3.98 9.67 5.96 9.34 8 9 C8 10.32 8 11.64 8 13 C5.125 13.1875 5.125 13.1875 2 13 C-0.20914 9.68629 -0.22481553 8.6553979 -0.125 4.8125 C-0.10695312 3.91144531 -0.08890625 3.01039062 -0.0703125 2.08203125 C-0.04710937 1.39496094 -0.02390625 0.70789062 0 0 Z " fill="#472C59" transform="translate(197,56)"/>
<path d="M0 0 C1.32 0 2.64 0 4 0 C4 4.95 4 9.9 4 15 C3.34 15 2.68 15 2 15 C1.93941406 14.25234375 1.87882813 13.5046875 1.81640625 12.734375 C1.73261719 11.74953125 1.64882812 10.7646875 1.5625 9.75 C1.48128906 8.77546875 1.40007812 7.8009375 1.31640625 6.796875 C1.04925416 4.43538247 0.64628032 2.28098935 0 0 Z " fill="#1E3072" transform="translate(214,16)"/>
<path d="M0 0 C1.91635217 -0.05423638 3.83314925 -0.09289963 5.75 -0.125 C7.35101563 -0.15980469 7.35101563 -0.15980469 8.984375 -0.1953125 C11.92470106 -0.00487687 13.52361878 0.47329896 16 2 C16 2.66 16 3.32 16 4 C15.34 4 14.68 4 14 4 C14 3.34 14 2.68 14 2 C12.02 2 10.04 2 8 2 C8 2.66 8 3.32 8 4 C6.68 4 5.36 4 4 4 C4 3.34 4 2.68 4 2 C2.68 2.33 1.36 2.66 0 3 C0 2.01 0 1.02 0 0 Z " fill="#D3C9C9" transform="translate(134,155)"/>
<path d="M0 0 C0.99 0 1.98 0 3 0 C3.33 1.65 3.66 3.3 4 5 C8.455 5.99 8.455 5.99 13 7 C13 7.33 13 7.66 13 8 C8.08121703 8.28934017 4.84199691 8.27699736 1 5 C0.1875 2.3125 0.1875 2.3125 0 0 Z " fill="#E79091" transform="translate(118,138)"/>
<path d="M0 0 C0.33 0 0.66 0 1 0 C1 1.65 1 3.3 1 5 C1.99 4.67 2.98 4.34 4 4 C4.33 6.31 4.66 8.62 5 11 C3.68 11.33 2.36 11.66 1 12 C-0.3271261 8.0186217 -0.06915913 4.14954773 0 0 Z " fill="#E5C2BE" transform="translate(163,148)"/>
<path d="M0 0 C0.33 0 0.66 0 1 0 C1.48492623 6.42527261 1.48492623 6.42527261 -0.6875 9 C-3.55639535 10.2406034 -5.05641676 9.89942821 -8 9 C-7.67 8.34 -7.34 7.68 -7 7 C-6.38125 6.9175 -5.7625 6.835 -5.125 6.75 C-2.63198048 6.1304373 -2.63198048 6.1304373 -1.25 2.9375 C-0.8375 1.968125 -0.425 0.99875 0 0 Z " fill="#FB9897" transform="translate(208,110)"/>
<path d="M0 0 C0.99 0.33 1.98 0.66 3 1 C3 1.66 3 2.32 3 3 C2.21625 3.45375 1.4325 3.9075 0.625 4.375 C-2.1235949 6.07651113 -2.87921032 7.04519084 -4 10 C-4 8.68 -4 7.36 -4 6 C-4.99 5.67 -5.98 5.34 -7 5 C-5.90554162 4.13342884 -4.79902219 3.28207276 -3.6875 2.4375 C-3.07261719 1.96183594 -2.45773438 1.48617187 -1.82421875 0.99609375 C-1.22222656 0.66738281 -0.62023437 0.33867188 0 0 Z " fill="#F16666" transform="translate(144,101)"/>
<path d="M0 0 C0.66 0.66 1.32 1.32 2 2 C1.34 2.66 0.68 3.32 0 4 C-2.3381615 3.70241581 -4.67182036 3.36760731 -7 3 C-7.99 3.33 -8.98 3.66 -10 4 C-10.66 3.34 -11.32 2.68 -12 2 C-7.74151751 -1.2261231 -5.13968256 -1.26067685 0 0 Z " fill="#E59299" transform="translate(218,48)"/>
<path d="M0 0 C-1.32 2.64 -2.64 5.28 -4 8 C-4.66 7.01 -5.32 6.02 -6 5 C-6.66 5 -7.32 5 -8 5 C-7.625 3.0625 -7.625 3.0625 -7 1 C-4.53721199 -0.231394 -2.7204945 -0.07159196 0 0 Z " fill="#FB9F9F" transform="translate(200,37)"/>
<path d="M0 0 C1.00289062 0.10183594 2.00578125 0.20367187 3.0390625 0.30859375 C3.80992187 0.39238281 4.58078125 0.47617188 5.375 0.5625 C5.375 1.2225 5.375 1.8825 5.375 2.5625 C1.085 2.5625 -3.205 2.5625 -7.625 2.5625 C-7.625 1.9025 -7.625 1.2425 -7.625 0.5625 C-4.89657939 -0.80171031 -3.01546682 -0.31557211 0 0 Z " fill="#E56262" transform="translate(146.625,124.4375)"/>
<path d="M0 0 C0.33 0 0.66 0 1 0 C1 4.29 1 8.58 1 13 C-0.65 13.33 -2.3 13.66 -4 14 C-3.67 10.7 -3.34 7.4 -3 4 C-2.67 4 -2.34 4 -2 4 C-1.67 5.98 -1.34 7.96 -1 10 C-0.67 6.7 -0.34 3.4 0 0 Z " fill="#D68996" transform="translate(196,55)"/>
<path d="M0 0 C0.99 0 1.98 0 3 0 C0.54235728 5.73449967 -3.28878034 8.64101797 -9 11 C-9.66 10.67 -10.32 10.34 -11 10 C-9.04775796 7.70324466 -6.99960941 6.40122884 -4.375 5 C-0.75335148 3.35160534 -0.75335148 3.35160534 0 0 Z " fill="#E0C0BE" transform="translate(103,0)"/>
<path d="M0 0 C0.99 0 1.98 0 3 0 C3 2 3 2 0.625 4.5 C-0.24125 5.325 -1.1075 6.15 -2 7 C-2.66 7.66 -3.32 8.32 -4 9 C-4.99 8.67 -5.98 8.34 -7 8 C-6.02133662 6.85373678 -5.04205413 5.70800212 -4.0625 4.5625 C-3.51722656 3.92441406 -2.97195312 3.28632812 -2.41015625 2.62890625 C-1.63204305 1.73008851 -0.84063472 0.84063472 0 0 Z " fill="#EBA4A4" transform="translate(110,0)"/>
<path d="M0 0 C2.97 0 5.94 0 9 0 C9 0.66 9 1.32 9 2 C9.99 2.33 10.98 2.66 12 3 C7.71 3 3.42 3 -1 3 C-0.67 2.01 -0.34 1.02 0 0 Z " fill="#473963" transform="translate(180,66)"/>
<path d="M0 0 C0.66 0.33 1.32 0.66 2 1 C1.01 1.99 0.02 2.98 -1 4 C-0.67 2.68 -0.34 1.36 0 0 Z M-12 4 C-8.37 4 -4.74 4 -1 4 C-4.68734758 6.45823172 -7.69699971 7.01242616 -12 8 C-12 6.68 -12 5.36 -12 4 Z " fill="#DAD5D4" transform="translate(57,20)"/>
<path d="M0 0 C-0.99 0.33 -1.98 0.66 -3 1 C-2.67 2.32 -2.34 3.64 -2 5 C-4.97 4.67 -7.94 4.34 -11 4 C-7.65667474 -0.27945633 -5.29105716 -0.4070044 0 0 Z " fill="#4D4171" transform="translate(193,14)"/>
<path d="M0 0 C0.66 0.33 1.32 0.66 2 1 C1.01 2.32 0.02 3.64 -1 5 C-0.34 5.33 0.32 5.66 1 6 C-1.97 8.475 -1.97 8.475 -5 11 C-5 9.02 -5 7.04 -5 5 C-4.01 4.67 -3.02 4.34 -2 4 C-0.79117904 1.99983534 -0.79117904 1.99983534 0 0 Z " fill="#E49495" transform="translate(45,55)"/>
<path d="M0 0 C1.32 0.33 2.64 0.66 4 1 C4 3.97 4 6.94 4 10 C3.67 9.01 3.34 8.02 3 7 C2.01 6.67 1.02 6.34 0 6 C0 4.02 0 2.04 0 0 Z " fill="#F58D96" transform="translate(132,57)"/>
<path d="M0 0 C5.75 -0.125 5.75 -0.125 8 1 C8 2.98 8 4.96 8 7 C6.68 7 5.36 7 4 7 C4 5.02 4 3.04 4 1 C2.68 0.67 1.36 0.34 0 0 Z " fill="#CF8AA2" transform="translate(197,44)"/>
<path d="M0 0 C0.88429687 -0.01417969 1.76859375 -0.02835938 2.6796875 -0.04296875 C5.125 0.1875 5.125 0.1875 8.125 2.1875 C6.35586176 2.40976864 4.58455629 2.61483873 2.8125 2.8125 C1.82636719 2.92851563 0.84023437 3.04453125 -0.17578125 3.1640625 C-2.875 3.1875 -2.875 3.1875 -5.875 1.1875 C-4.21846314 -0.46903686 -2.26849204 0.01643835 0 0 Z " fill="#ED9497" transform="translate(202.875,34.8125)"/>
<path d="M0 0 C1.32 0.66 2.64 1.32 4 2 C4 2.66 4 3.32 4 4 C3.34 4 2.68 4 2 4 C2 4.99 2 5.98 2 7 C1.01 7 0.02 7 -1 7 C-1.625 4.625 -1.625 4.625 -2 2 C-1.34 1.34 -0.68 0.68 0 0 Z " fill="#F8B5B6" transform="translate(189,20)"/>
<path d="M0 0 C1.65 0 3.3 0 5 0 C4.566875 0.53625 4.13375 1.0725 3.6875 1.625 C1.79312397 4.29115885 0.40687194 7.05226832 -1 10 C-2.0625 8.1875 -2.0625 8.1875 -3 6 C-2.67 5.01 -2.34 4.02 -2 3 C-1.34 3 -0.68 3 0 3 C0 2.01 0 1.02 0 0 Z " fill="#F27473" transform="translate(158,96)"/>
<path d="M0 0 C0.66 0 1.32 0 2 0 C2.33 1.32 2.66 2.64 3 4 C6.0745356 3.2236068 6.0745356 3.2236068 8 1 C8.33 2.65 8.66 4.3 9 6 C6 7 6 7 3.375 6.375 C1 5 1 5 0.1875 2.375 C0.125625 1.59125 0.06375 0.8075 0 0 Z " fill="#F7A8AA" transform="translate(209,69)"/>
<path d="M0 0 C1.21236328 0.02707031 1.21236328 0.02707031 2.44921875 0.0546875 C3.37154297 0.08949219 3.37154297 0.08949219 4.3125 0.125 C4.6425 0.785 4.9725 1.445 5.3125 2.125 C4.70921875 2.17398437 4.1059375 2.22296875 3.484375 2.2734375 C2.28554687 2.38558594 2.28554687 2.38558594 1.0625 2.5 C-0.12085938 2.60441406 -0.12085938 2.60441406 -1.328125 2.7109375 C-3.773377 3.14007113 -5.53586903 3.91100638 -7.6875 5.125 C-7.6875 4.135 -7.6875 3.145 -7.6875 2.125 C-4.48369983 -0.01086678 -3.66810033 -0.10632175 0 0 Z " fill="#E5BDCA" transform="translate(189.6875,11.875)"/>
<path d="M0 0 C1.32 0 2.64 0 4 0 C4.33 1.98 4.66 3.96 5 6 C3.35 6 1.7 6 0 6 C0 4.02 0 2.04 0 0 Z " fill="#F58B89" transform="translate(144,57)"/>
<path d="M0 0 C4.75 1.875 4.75 1.875 7 3 C6.67 3.99 6.34 4.98 6 6 C4.35 5.67 2.7 5.34 1 5 C0.67 3.35 0.34 1.7 0 0 Z " fill="#2D2C65" transform="translate(207,55)"/>
<path d="M0 0 C1.65 0.33 3.3 0.66 5 1 C5.33 1.99 5.66 2.98 6 4 C3.36 4 0.72 4 -2 4 C-1.34 2.68 -0.68 1.36 0 0 Z " fill="#C193AF" transform="translate(164,54)"/>
<path d="M0 0 C1.65 0 3.3 0 5 0 C4.07347299 1.17539996 3.13336613 2.34010577 2.1875 3.5 C1.66542969 4.1496875 1.14335938 4.799375 0.60546875 5.46875 C-1 7 -1 7 -4 7 C-2.68 4.69 -1.36 2.38 0 0 Z " fill="#EC9797" transform="translate(91,20)"/>
<path d="M0 0 C0.99 0.66 1.98 1.32 3 2 C3 2.66 3 3.32 3 4 C2.01 4 1.02 4 0 4 C-0.33 4.66 -0.66 5.32 -1 6 C-1 5.34 -1 4.68 -1 4 C-2.98 4 -4.96 4 -7 4 C-6 2 -6 2 -3.125 0.75 C-1.578125 0.37875 -1.578125 0.37875 0 0 Z " fill="#DAD4D1" transform="translate(79,12)"/>
<path d="M0 0 C0.94875 0.04125 1.8975 0.0825 2.875 0.125 C-0.00587546 2.52572955 -2.68904834 4.59791037 -6.125 6.125 C-5.28810868 1.94054341 -4.61542241 0.1846169 0 0 Z " fill="#EBADAC" transform="translate(181.125,141.875)"/>
<path d="M0 0 C0.33 1.32 0.66 2.64 1 4 C-1.75924185 5.80411967 -2.88972103 6.0127245 -6.25 5.625 C-7.1575 5.41875 -8.065 5.2125 -9 5 C-8.443125 4.9175 -7.88625 4.835 -7.3125 4.75 C-4.30285794 3.77389987 -2.37845248 2.04811186 0 0 Z " fill="#DDA5A6" transform="translate(111,139)"/>
<path d="M0 0 C0 1.65 0 3.3 0 5 C-0.99 5 -1.98 5 -3 5 C-3 3.68 -3 2.36 -3 1 C-5.64 1 -8.28 1 -11 1 C-11 0.67 -11 0.34 -11 0 C-7.01803543 -1.05404945 -4.01804691 -0.84098656 0 0 Z " fill="#E690A1" transform="translate(192,69)"/>
<path d="M0 0 C2.475 0.99 2.475 0.99 5 2 C4.01 3.98 3.02 5.96 2 8 C1.01 7.34 0.02 6.68 -1 6 C-0.67 5.34 -0.34 4.68 0 4 C0 2.68 0 1.36 0 0 Z " fill="#F88D8B" transform="translate(92,57)"/>
<path d="M0 0 C0.598125 0.185625 1.19625 0.37125 1.8125 0.5625 C4.16408762 1.22093687 4.16408762 1.22093687 7 0 C8.5 1.375 8.5 1.375 10 3 C10 3.66 10 4.32 10 5 C6.30099992 4.11223998 2.65449539 3.05418136 -1 2 C-0.67 1.34 -0.34 0.68 0 0 Z " fill="#F88485" transform="translate(105,40)"/>
<path d="M0 0 C3.37462715 0.54723683 5.08235 1.0549 8 3 C5.69 3.66 3.38 4.32 1 5 C0.67 3.35 0.34 1.7 0 0 Z " fill="#533D68" transform="translate(207,63)"/>
<path d="M0 0 C0.33 0 0.66 0 1 0 C1 2.31 1 4.62 1 7 C-0.65 7.33 -2.3 7.66 -4 8 C-3.34 6.02 -2.68 4.04 -2 2 C-1.34 2 -0.68 2 0 2 C0 1.34 0 0.68 0 0 Z " fill="#212E6B" transform="translate(206,9)"/>
<path d="M0 0 C1.98 0 3.96 0 6 0 C5.67 1.32 5.34 2.64 5 4 C2.69 4 0.38 4 -2 4 C-1.34 2.68 -0.68 1.36 0 0 Z " fill="#253063" transform="translate(12,7)"/>
<path d="M0 0 C0.99 0.33 1.98 0.66 3 1 C3 3.31 3 5.62 3 8 C2.01 8 1.02 8 0 8 C0 5.36 0 2.72 0 0 Z " fill="#CAD4CF" transform="translate(165,221)"/>
<path d="M0 0 C3.3 0 6.6 0 10 0 C10 0.99 10 1.98 10 3 C6.7 2.67 3.4 2.34 0 2 C0 1.34 0 0.68 0 0 Z " fill="#E0B0B0" transform="translate(150,154)"/>
<path d="M0 0 C0.66 0 1.32 0 2 0 C2 0.66 2 1.32 2 2 C3.65 2 5.3 2 7 2 C7 2.33 7 2.66 7 3 C5.02 3.66 3.04 4.32 1 5 C1 7.31 1 9.62 1 12 C0.34 11.67 -0.32 11.34 -1 11 C-1.14285714 3.57142857 -1.14285714 3.57142857 0 0 Z " fill="#402F61" transform="translate(142,52)"/>
<path d="M0 0 C1.98 0 3.96 0 6 0 C5.01 0.33 4.02 0.66 3 1 C2.67 2.65 2.34 4.3 2 6 C0.68 5.34 -0.64 4.68 -2 4 C-1.34 2.68 -0.68 1.36 0 0 Z " fill="#433163" transform="translate(209,51)"/>
<path d="M0 0 C0 3.9478088 -1.33724565 5.18508826 -4 8 C-4.99 8 -5.98 8 -7 8 C-6.8125 6.1875 -6.8125 6.1875 -6 4 C-3.5 2.3125 -3.5 2.3125 -1 1 C-0.67 0.67 -0.34 0.34 0 0 Z " fill="#DDC1C0" transform="translate(92,12)"/>
<path d="M0 0 C2.475 0.495 2.475 0.495 5 1 C4.67 2.32 4.34 3.64 4 5 C2.68 5 1.36 5 0 5 C0 3.35 0 1.7 0 0 Z " fill="#383159" transform="translate(215,6)"/>
<path d="M0 0 C1.65 0 3.3 0 5 0 C5 1.65 5 3.3 5 5 C3.68 5 2.36 5 1 5 C0.67 3.35 0.34 1.7 0 0 Z " fill="#DCCFCF" transform="translate(224,0)"/>
<path d="M0 0 C0.1875 3.375 0.1875 3.375 0 7 C-0.99 7.66 -1.98 8.32 -3 9 C-3 6.36 -3 3.72 -3 1 C-1 0 -1 0 0 0 Z " fill="#C9D2CD" transform="translate(168,209)"/>
<path d="M0 0 C3.3 0 6.6 0 10 0 C10 0.66 10 1.32 10 2 C6.30458414 2.95024979 3.69541586 2.95024979 0 2 C0 1.34 0 0.68 0 0 Z " fill="#D9CDCA" transform="translate(121,149)"/>
<path d="M0 0 C0.99 0.33 1.98 0.66 3 1 C1.14255768 3.37339853 0.02152312 3.9940468 -2.9375 4.8125 C-6.10024068 5.00613718 -7.39385869 4.70401547 -10 3 C-8.72125 2.87625 -7.4425 2.7525 -6.125 2.625 C-2.65209064 2.30957601 -2.65209064 2.30957601 0 0 Z " fill="#EDB3B0" transform="translate(215,136)"/>
<path d="M0 0 C1.65 0 3.3 0 5 0 C4.67 1.32 4.34 2.64 4 4 C2.35 4 0.7 4 -1 4 C-0.67 2.68 -0.34 1.36 0 0 Z " fill="#C68CA6" transform="translate(182,61)"/>
<path d="M0 0 C0 2.64 0 5.28 0 8 C-0.99 8 -1.98 8 -3 8 C-3 5.69 -3 3.38 -3 1 C-1 0 -1 0 0 0 Z " fill="#F79B97" transform="translate(206,55)"/>
<path d="M0 0 C2.86724686 0.57344937 3.8614515 0.8614515 6 3 C6 3.66 6 4.32 6 5 C3.69 4.34 1.38 3.68 -1 3 C-0.67 2.01 -0.34 1.02 0 0 Z " fill="#B48EAB" transform="translate(212,54)"/>
<path d="M0 0 C-0.66 1.65 -1.32 3.3 -2 5 C-3.32 5 -4.64 5 -6 5 C-6 3.68 -6 2.36 -6 1 C-3 0 -3 0 0 0 Z " fill="#42315F" transform="translate(183,52)"/>
<path d="M0 0 C0 0.99 0 1.98 0 3 C-1.98567708 2.96744792 -3.97135417 2.93489583 -5.95703125 2.90234375 C-8.20305461 2.91736783 -8.20305461 2.91736783 -11 4 C-10.67 3.01 -10.34 2.02 -10 1 C-6.76421296 -0.31828361 -3.44785988 -0.07836045 0 0 Z " fill="#EC9DAB" transform="translate(189,48)"/>
<path d="M0 0 C1.32 0.33 2.64 0.66 4 1 C4.33 2.65 4.66 4.3 5 6 C3.68 6 2.36 6 1 6 C0.67 4.02 0.34 2.04 0 0 Z " fill="#F48785" transform="translate(153,48)"/>
<path d="M0 0 C0.99 0.495 0.99 0.495 2 1 C1.01 1.495 1.01 1.495 0 2 C0 1.34 0 0.68 0 0 Z M-11 2 C-8.69 2 -6.38 2 -4 2 C-4 2.99 -4 3.98 -4 5 C-6.31 4.67 -8.62 4.34 -11 4 C-11 3.34 -11 2.68 -11 2 Z M-3 2 C0 3 0 3 0 3 Z " fill="#F78A8A" transform="translate(99,40)"/>
<path d="M0 0 C0.639375 0.2475 1.27875 0.495 1.9375 0.75 C2.2675 1.74 2.5975 2.73 2.9375 3.75 C0.9575 3.75 -1.0225 3.75 -3.0625 3.75 C-3.3925 2.76 -3.7225 1.77 -4.0625 0.75 C-2.0625 -0.25 -2.0625 -0.25 0 0 Z " fill="#E797A0" transform="translate(140.0625,38.25)"/>
<path d="M0 0 C1.98 0 3.96 0 6 0 C6 0.99 6 1.98 6 3 C3.36 3.33 0.72 3.66 -2 4 C-1.34 2.68 -0.68 1.36 0 0 Z " fill="#CC89A3" transform="translate(181,55)"/>
<path d="M0 0 C0.99 0.33 1.98 0.66 3 1 C3 2.32 3 3.64 3 5 C3.99 5.33 4.98 5.66 6 6 C4.02 6.33 2.04 6.66 0 7 C0 4.69 0 2.38 0 0 Z " fill="#F09CA3" transform="translate(143,44)"/>
<path d="M0 0 C0 0.99 0 1.98 0 3 C-4.29 2.67 -8.58 2.34 -13 2 C-13 1.67 -13 1.34 -13 1 C-8.62426048 0.40667939 -4.42471556 -0.13827236 0 0 Z " fill="#F1B3B1" transform="translate(205,136)"/>
<path d="M0 0 C2.64 0 5.28 0 8 0 C7.01 0.33 6.02 0.66 5 1 C4.67 1.99 4.34 2.98 4 4 C3.01 4 2.02 4 1 4 C0.67 2.68 0.34 1.36 0 0 Z " fill="#E7ABBE" transform="translate(211,69)"/>
<path d="M0 0 C1.98 0.66 3.96 1.32 6 2 C4.03617993 3.50559539 2.21736634 4.89131683 0 6 C-0.99 5.01 -1.98 4.02 -3 3 C-2.01 2.01 -1.02 1.02 0 0 Z " fill="#493A6C" transform="translate(162,63)"/>
<path d="M0 0 C0.66 0.33 1.32 0.66 2 1 C2.4140625 3.06640625 2.4140625 3.06640625 2.625 5.5625 C2.69976562 6.38878906 2.77453125 7.21507812 2.8515625 8.06640625 C2.92503906 9.02353516 2.92503906 9.02353516 3 10 C1.68 9.67 0.36 9.34 -1 9 C-0.67 6.03 -0.34 3.06 0 0 Z " fill="#213069" transform="translate(159,56)"/>
<path d="M0 0 C0 0.66 0 1.32 0 2 C-3.375 2.625 -3.375 2.625 -7 3 C-7.66 2.34 -8.32 1.68 -9 1 C-6.04335481 -0.4783226 -3.25770263 -0.06032783 0 0 Z " fill="#3C2C59" transform="translate(188,58)"/>
<path d="M0 0 C0.33 1.32 0.66 2.64 1 4 C0.1028125 4.37125 0.1028125 4.37125 -0.8125 4.75 C-3.28647521 6.16370012 -4.43370255 7.65055383 -6 10 C-6 6.41087588 -5.33563446 5.89142971 -3 3.3125 C-2.443125 2.68988281 -1.88625 2.06726563 -1.3125 1.42578125 C-0.879375 0.95527344 -0.44625 0.48476563 0 0 Z " fill="#E39CA6" transform="translate(197,29)"/>
<path d="M0 0 C1.65 0 3.3 0 5 0 C2.525 3.465 2.525 3.465 0 7 C-0.66 6.34 -1.32 5.68 -2 5 C-1.34 3.35 -0.68 1.7 0 0 Z " fill="#F88989" transform="translate(189,112)"/>
<path d="M0 0 C-0.66 1.65 -1.32 3.3 -2 5 C-2.66 5 -3.32 5 -4 5 C-4 4.01 -4 3.02 -4 2 C-4.66 2 -5.32 2 -6 2 C-6 1.34 -6 0.68 -6 0 C-3.50907189 -1.24546405 -2.58919267 -0.7767578 0 0 Z " fill="#F8A39F" transform="translate(164,78)"/>
<path d="M0 0 C1.65 0.33 3.3 0.66 5 1 C4.01 1.495 4.01 1.495 3 2 C2.67 2.99 2.34 3.98 2 5 C1.01 4.67 0.02 4.34 -1 4 C-0.67 2.68 -0.34 1.36 0 0 Z " fill="#F19499" transform="translate(143,74)"/>
<path d="M0 0 C2.64 0.33 5.28 0.66 8 1 C5.03721286 2.64599285 2.38693192 3.65262237 -1 4 C-1.99 3.34 -2.98 2.68 -4 2 C-2.68 2 -1.36 2 0 2 C0 1.34 0 0.68 0 0 Z " fill="#34316C" transform="translate(143,64)"/>
<path d="M0 0 C1.98 0.66 3.96 1.32 6 2 C5.360625 2.12375 4.72125 2.2475 4.0625 2.375 C3.381875 2.58125 2.70125 2.7875 2 3 C1.67 3.66 1.34 4.32 1 5 C0.01 4.34 -0.98 3.68 -2 3 C-1.34 2.01 -0.68 1.02 0 0 Z " fill="#433260" transform="translate(214,58)"/>
<path d="M0 0 C-0.33 0.99 -0.66 1.98 -1 3 C-2.65 3 -4.3 3 -6 3 C-6 2.01 -6 1.02 -6 0 C-3.50907189 -1.24546405 -2.58919267 -0.7767578 0 0 Z " fill="#EFA8B3" transform="translate(174,48)"/>
<path d="M0 0 C0.33 0.99 0.66 1.98 1 3 C-0.21484375 4.82421875 -0.21484375 4.82421875 -1.9375 6.6875 C-2.50339844 7.31011719 -3.06929687 7.93273437 -3.65234375 8.57421875 C-4.09707031 9.04472656 -4.54179687 9.51523437 -5 10 C-5.33 8.68 -5.66 7.36 -6 6 C-5.38125 5.938125 -4.7625 5.87625 -4.125 5.8125 C-1.72238859 5.171081 -1.72238859 5.171081 -0.75 2.4375 C-0.5025 1.633125 -0.255 0.82875 0 0 Z " fill="#D9E9E5" transform="translate(25,19)"/>
<path d="M0 0 C2.31 0 4.62 0 7 0 C6.67 0.99 6.34 1.98 6 3 C4.02 3 2.04 3 0 3 C0 2.01 0 1.02 0 0 Z " fill="#E0DEDC" transform="translate(94,0)"/>
<path d="M0 0 C-1.39332574 3.36720387 -2.9789286 4.9859524 -6 7 C-5.6875 4.625 -5.6875 4.625 -5 2 C-2 0 -2 0 0 0 Z " fill="#FA9EA0" transform="translate(224,78)"/>
<path d="M0 0 C1.32 0.66 2.64 1.32 4 2 C-1.29230769 5.07692308 -1.29230769 5.07692308 -4.875 4.6875 C-5.57625 4.460625 -6.2775 4.23375 -7 4 C-7 3.67 -7 3.34 -7 3 C-4.69 3 -2.38 3 0 3 C0 2.01 0 1.02 0 0 Z " fill="#E68A95" transform="translate(206,67)"/>
<path d="M0 0 C1.32 0 2.64 0 4 0 C3.67 1.32 3.34 2.64 3 4 C1.35 4.33 -0.3 4.66 -2 5 C-1.34 4.01 -0.68 3.02 0 2 C0 1.34 0 0.68 0 0 Z " fill="#F0848A" transform="translate(178,70)"/>
<path d="M0 0 C1.32 0 2.64 0 4 0 C3.49396008 2.16874252 3.00016187 3.99967627 2 6 C1.34 6 0.68 6 0 6 C0 4.02 0 2.04 0 0 Z " fill="#202C6F" transform="translate(216,61)"/>
<path d="M0 0 C0.66 0 1.32 0 2 0 C3.4606285 2.64738916 4 3.89448334 4 7 C3.34 7 2.68 7 2 7 C0.3125 5.1875 0.3125 5.1875 -1 3 C-0.67 2.01 -0.34 1.02 0 0 Z " fill="#202F78" transform="translate(197,51)"/>
<path d="M0 0 C0.33 0.66 0.66 1.32 1 2 C1.66 2.33 2.32 2.66 3 3 C2.34 3 1.68 3 1 3 C0.67 4.32 0.34 5.64 0 7 C-1.32 5.68 -2.64 4.36 -4 3 C-3.01 2.67 -2.02 2.34 -1 2 C-0.67 1.34 -0.34 0.68 0 0 Z " fill="#C6929B" transform="translate(193,48)"/>
<path d="M0 0 C6.75 0.75 6.75 0.75 9 3 C5.625 3.1875 5.625 3.1875 2 3 C1.34 2.01 0.68 1.02 0 0 Z " fill="#344072" transform="translate(10,21)"/>
<path d="M0 0 C0.33 0 0.66 0 1 0 C1.66 2.64 2.32 5.28 3 8 C2.01 8.33 1.02 8.66 0 9 C-1.125 2.25 -1.125 2.25 0 0 Z " fill="#E68788" transform="translate(100,125)"/>
<path d="M0 0 C1.98 0 3.96 0 6 0 C6 0.99 6 1.98 6 3 C4.35 3 2.7 3 1 3 C0.67 2.01 0.34 1.02 0 0 Z " fill="#D699BE" transform="translate(163,62)"/>
<path d="M0 0 C1.98 0 3.96 0 6 0 C6 0.66 6 1.32 6 2 C6.66 2 7.32 2 8 2 C8 2.66 8 3.32 8 4 C5.64828869 3.40138258 3.3140622 2.73075648 1 2 C0.67 1.34 0.34 0.68 0 0 Z " fill="#1F2A6A" transform="translate(11,19)"/>
<path d="M0 0 C1.32 0 2.64 0 4 0 C4 1.32 4 2.64 4 4 C1.03 3.505 1.03 3.505 -2 3 C-1.34 2.67 -0.68 2.34 0 2 C0 1.34 0 0.68 0 0 Z " fill="#282A61" transform="translate(190,15)"/>
</svg>
